<svg width="50" height="50" viewBox="0 0 50 50" fill="none" xmlns="http://www.w3.org/2000/svg">
<path fill-rule="evenodd" clip-rule="evenodd" d="M25.0002 43.4757C14.8285 43.4757 6.55225 35.1984 6.55225 24.9742C6.55225 14.8011 14.8285 6.52539 25.0002 6.52539C35.1714 6.52539 43.4477 14.8011 43.4477 24.9742C43.4477 34.8204 35.6036 43.4757 25.0002 43.4757ZM25.0002 43.1588C15.0028 43.1588 6.8687 35.0236 6.8687 24.9747C6.8687 14.976 15.0028 6.84232 25.0002 6.84232C34.997 6.84232 43.1312 14.976 43.1312 24.9747C43.1312 34.6521 35.4218 43.1588 25.0002 43.1588Z" fill="#1B1918"/>
<path fill-rule="evenodd" clip-rule="evenodd" d="M25.0115 49.7451C38.6357 49.7451 49.7445 38.6879 49.7445 25.0111C49.7445 11.3345 38.6357 0.277344 25.0115 0.277344C11.3857 0.277344 0.276855 11.3345 0.276855 25.0111C0.276855 38.6879 11.3857 49.7451 25.0115 49.7451ZM25.0114 45.7299C36.4239 45.7299 45.7294 36.4678 45.7294 25.0111C45.7294 13.5547 36.4239 4.29258 25.0114 4.29258C13.5974 4.29258 4.29199 13.5547 4.29199 25.0111C4.29199 36.4678 13.5974 45.7299 25.0114 45.7299Z" fill="#009035"/>
<path fill-rule="evenodd" clip-rule="evenodd" d="M25.0004 50C38.7711 50 49.9995 38.8239 49.9995 24.9998C49.9995 11.1761 38.7711 0 25.0004 0C11.2281 0 -0.000488281 11.1761 -0.000488281 24.9998C-0.000488281 38.8239 11.2281 50 25.0004 50ZM25.0004 49.7339C38.6246 49.7339 49.7334 38.6767 49.7334 24.9998C49.7334 11.3233 38.6246 0.266114 25.0004 0.266114C11.3746 0.266114 0.265735 11.3233 0.265735 24.9998C0.265735 38.6767 11.3746 49.7339 25.0004 49.7339Z" fill="#FFCB00"/>
<path fill-rule="evenodd" clip-rule="evenodd" d="M15.2071 44.4121L14.9013 44.933L14.8516 44.9032C14.8909 44.7649 14.9091 44.6587 14.9034 44.5858C14.8974 44.511 14.8708 44.4406 14.8246 44.3712C14.8002 44.3321 14.7422 44.2877 14.6527 44.235L14.5121 44.1508L13.6428 45.6343C13.5851 45.7334 13.5537 45.7969 13.5516 45.8279C13.5481 45.859 13.5576 45.8921 13.5763 45.9293C13.5967 45.9678 13.6336 46.0022 13.6881 46.0337L13.7519 46.071L13.721 46.123L12.7218 45.5324L12.7515 45.482L12.8163 45.5182C12.8713 45.5503 12.9218 45.5675 12.9672 45.5675C12.9996 45.5686 13.0319 45.558 13.0651 45.5324C13.0888 45.5173 13.1278 45.4604 13.1857 45.363L14.0548 43.8803L13.9166 43.7994C13.7878 43.7242 13.6779 43.6952 13.5872 43.716C13.4619 43.7442 13.3451 43.8227 13.2417 43.9523L13.1882 43.9195L13.4938 43.3995L15.2071 44.4121ZM12.4756 42.7118C11.9525 42.0823 11.375 42.4485 11.375 42.2405C11.4288 41.9784 11.1656 41.7155 10.8509 41.821C10.7989 41.8723 10.7461 41.4537 10.5371 41.192C10.275 40.9298 9.74954 40.7199 9.22767 40.7739C8.91277 40.7739 8.65048 40.7739 8.65048 40.7739C8.44019 40.7199 8.07373 40.7199 7.9696 40.615H7.91722C7.60315 40.5627 7.34097 40.4059 7.13079 40.1447C6.92121 39.8293 6.81661 39.1482 7.28849 38.9372C7.55056 38.8858 8.02066 39.1482 7.865 39.2014C7.81215 39.2014 7.70742 39.2014 7.60317 39.3048C7.39216 39.5156 7.55057 39.9333 7.865 39.9869C8.28368 40.0385 8.23168 39.5669 8.28369 39.7236C8.33677 39.9333 8.59882 40.1447 8.86041 40.2495C9.12152 40.3537 9.38432 40.3004 9.38432 40.3004C9.38432 40.3004 9.27943 40.1958 9.01666 39.8829C8.70246 39.62 8.75605 39.463 8.44019 38.9902C7.96962 38.257 7.55056 38.5193 7.60317 38.3624C7.65399 38.1003 7.39215 37.7849 7.13079 37.8378C7.07843 37.8378 7.07845 37.4194 6.92123 37.1576C6.76354 36.7902 6.3953 36.5272 5.97805 36.423C5.55829 36.3709 5.24519 36.2137 5.24519 36.2137C5.08702 36.1617 4.92956 36.1094 4.77234 36.004L4.66749 35.9507C4.4078 35.8463 4.09219 35.5839 3.98638 35.3239C3.82988 34.9561 3.88248 34.275 4.4078 34.1699C4.72021 34.1699 5.08702 34.4844 4.92957 34.4844C4.87851 34.4844 4.82542 34.5368 4.66749 34.5874C4.4078 34.6936 4.45899 35.1652 4.72022 35.2172C5.08702 35.3239 5.19187 35.0085 5.19187 35.1652C5.19187 35.3752 5.40157 35.6893 5.61067 35.8463C5.87321 35.9507 6.13502 36.004 6.13502 36.004C6.13502 36.004 6.03136 35.8981 5.82118 35.5319C5.61065 35.1652 5.71576 35.0085 5.50702 34.4844C5.29672 33.9076 4.87851 33.6458 4.92957 33.5934C5.14058 33.2245 4.92956 32.9123 4.61537 32.8598C4.61537 32.8598 4.6675 32.7026 4.51124 32.3362C4.35355 31.9691 4.14326 31.6008 3.72481 31.4445C3.35813 31.2876 2.99108 31.0255 2.99108 31.0255C2.88576 30.9209 2.67676 30.7625 2.57108 30.6584L2.52005 30.6062C2.31023 30.396 2.15311 30.1344 2.10027 29.8205C2.04838 29.4536 2.25724 28.825 2.78054 28.8761C3.09592 28.8761 3.41132 29.3484 3.20043 29.2954C3.14961 29.2442 3.09593 29.2442 2.9386 29.2954C2.62369 29.4536 2.5711 29.8205 2.83316 30.029C3.14962 30.24 3.35813 29.8205 3.30481 30.029C3.25292 30.24 3.35812 30.5542 3.56628 30.7625C3.7248 30.9209 3.98638 31.0255 3.98638 31.0255C3.98638 31.0255 3.93402 30.9209 3.82988 30.5001C3.7248 30.0816 3.82987 29.9782 3.77762 29.4005C3.72478 28.5627 3.20044 28.7732 3.30481 28.4578C3.56628 27.9335 3.14961 27.8826 3.20043 27.8285C3.20043 27.7778 3.30481 27.4098 3.35813 27.0954C3.35813 26.7287 3.20042 26.3617 2.88575 26.1524C2.78055 26.0488 2.36304 25.6276 2.36304 25.6276C2.25724 25.5232 1.99592 25.2076 1.89023 24.999L1.83739 24.9458C1.68148 24.6844 1.57604 24.3702 1.6284 24.056C1.68148 23.6893 2.04841 23.1121 2.52005 23.2696C2.78057 23.375 2.88577 23.8458 2.83316 23.7948C2.78056 23.7948 2.67677 23.6894 2.46695 23.741C2.20417 23.741 2.04838 24.161 2.25724 24.4233C2.52002 24.7371 2.83317 24.3702 2.72951 24.5277C2.67678 24.7371 2.67678 25.1039 2.83316 25.3139C2.93861 25.5232 3.14962 25.7329 3.14962 25.7329C3.14962 25.7329 3.14962 25.575 3.14962 25.1567C3.09594 24.6844 3.25292 24.6323 3.35813 24.056C3.46274 23.2696 3.04489 23.1121 3.14962 23.0611C3.41132 22.8503 3.41132 22.4823 3.14962 22.3783C3.09594 22.3267 3.41133 22.0648 3.51499 21.6984C3.56629 21.3313 3.51497 21.0166 3.25291 20.6511C3.04488 20.2833 2.83316 19.9693 2.83316 19.9693C2.78056 19.8105 2.62368 19.4983 2.57108 19.3399V19.2871C2.46695 18.9728 2.46695 18.6586 2.57108 18.3442C2.72949 17.978 3.20041 17.558 3.61981 17.8203C3.88247 17.978 3.88249 18.5004 3.82988 18.3975C3.77764 18.3442 3.72481 18.2914 3.51499 18.2393C3.25293 18.1866 2.99109 18.5537 3.09594 18.8701C3.3048 19.2358 3.67148 18.9728 3.56628 19.0774C3.41132 19.2358 3.3581 19.6022 3.4113 19.8638C3.46271 20.1247 3.67149 20.3357 3.67149 20.3357C3.67149 20.3357 3.67146 20.1778 3.77762 19.7583C3.88247 19.3399 3.98638 19.3399 4.24869 18.7613C4.56252 18.0291 4.14323 17.7147 4.30044 17.7665C4.56251 17.7665 4.66749 17.2446 4.45898 17.086C4.4078 17.086 4.77235 16.8251 4.98205 16.5092C5.14058 16.1957 5.19187 15.8284 4.98205 15.4614C4.82543 15.0947 4.72022 14.5192 4.72022 14.5192C4.6675 14.3089 4.61536 14.152 4.66749 13.9943V13.942C4.61536 13.6273 4.72022 13.3135 4.8785 13.0511C5.08701 12.7365 5.71574 12.4228 6.03136 12.7893C6.24118 13.0511 6.18811 13.5753 6.0829 13.4181C6.03137 13.366 6.03136 13.2607 5.87319 13.2081C5.55828 13.0511 5.24519 13.366 5.29673 13.6802C5.34861 14.1002 5.8212 13.8889 5.66315 13.9943C5.45488 14.152 5.34859 14.4664 5.34859 14.7282C5.34859 14.9898 5.45486 15.2519 5.45486 15.2519C5.45486 15.2519 5.507 15.0946 5.71574 14.7282C5.8732 14.3611 6.03138 14.3611 6.39532 13.8889C6.92124 13.2081 6.39533 12.8939 6.7113 12.8939C7.23615 12.8407 6.97384 12.3189 7.02608 12.3189C7.07845 12.2651 7.39215 12.1074 7.65398 11.8463C7.91723 11.5826 8.02065 11.2691 7.9696 10.8501C7.86498 10.4314 7.81215 9.80253 7.81215 9.80253C7.81215 9.6446 7.81215 9.53951 7.865 9.38324V9.33076C7.91724 9.01586 8.17908 8.70167 8.44019 8.48994C8.70249 8.23085 9.43644 8.07293 9.69874 8.48994C9.80335 8.75522 9.54129 9.2784 9.48798 9.12071C9.48798 9.06846 9.48795 8.96433 9.333 8.8596C9.06939 8.64966 8.70249 8.85959 8.65048 9.22686C8.65048 9.59235 9.12153 9.53951 8.96526 9.59235C8.75604 9.69792 8.54575 9.95974 8.44019 10.2216C8.38806 10.4827 8.44019 10.7452 8.44019 10.7452C8.44019 10.7452 8.54573 10.6413 8.80804 10.3272C9.06939 9.95974 9.22769 10.0126 9.69874 9.6446C10.3288 9.17284 10.1187 8.75521 10.2231 8.75521C10.8509 8.85959 10.6421 8.33594 10.695 8.28274C10.746 8.28274 11.1134 8.23085 11.4288 8.01984C11.6899 7.81062 11.8993 7.54974 11.9525 7.12879C11.9525 6.71023 12.3715 5.6622 12.3715 5.6622V5.60984C12.5278 5.29589 12.7383 5.08548 13.0001 4.92779C13.3144 4.77152 13.996 4.77152 14.101 5.24436C14.2054 5.55748 13.8912 5.97723 13.8912 5.81931C13.8376 5.76753 13.8912 5.60984 13.7863 5.50618C13.5763 5.24436 13.1578 5.34778 13.0519 5.71446C12.8947 6.0809 13.3668 6.0809 13.2089 6.13421C13.0001 6.1861 12.7383 6.39437 12.5798 6.60585C12.4757 6.86697 12.4756 7.12879 12.4756 7.12879C12.4756 7.12879 12.5798 7.02431 12.8947 6.8158C13.2616 6.55302 13.3668 6.60586 13.9429 6.39437C14.6771 6.02865 14.3628 5.55747 14.6771 5.6622C15.2001 5.8193 15.2001 5.29589 15.2534 5.29589C15.3055 5.29589 15.6717 5.29589 15.9868 5.19104C16.3533 5.08548 16.6156 4.8246 16.7207 4.45768C16.8782 4.03757 17.0877 3.46191 17.0877 3.46191C17.1926 3.30399 17.2965 3.19889 17.4011 3.09416V3.04215C17.6636 2.83233 17.9255 2.77961 18.2411 2.83233C18.555 2.88494 18.8169 3.04215 18.6594 3.41038C18.6081 3.61817 18.3965 3.67066 18.3965 3.67066C18.3965 3.67066 18.3965 3.46191 18.0829 3.41038C18.0829 3.41038 17.8739 3.41038 17.7685 3.56533C17.6121 3.77682 17.8739 3.88167 17.7685 3.93201C17.1926 4.24692 17.1926 4.77152 17.2454 4.71868C17.8739 4.09042 18.8169 3.98556 18.8169 3.98556C19.0274 4.24691 19.4449 4.19503 19.4449 3.82883H19.8118C20.2842 3.77682 20.7037 3.77682 21.2797 3.51404C21.2797 3.51404 20.0209 3.41037 19.3407 2.93778C18.8168 2.62216 18.345 2.36034 17.9776 2.41413C17.7155 2.41413 17.4542 2.51921 17.2454 2.72749C17.1926 2.77961 17.0344 2.57027 16.7747 2.62216C16.4581 2.72748 16.5102 3.04215 16.4064 3.04215C16.1968 3.09416 16.0398 3.04215 15.6198 3.30398C15.2534 3.56533 15.2534 3.67066 14.7295 3.77682C14.2574 3.88166 14.0484 3.98556 14.0484 3.98556C14.0484 3.98556 14.2054 4.1423 14.4153 4.1423C14.5711 4.19502 14.8869 4.24692 15.15 4.09042C15.15 4.09042 15.0964 4.35176 15.358 4.45768C15.5673 4.5104 15.725 4.40485 15.8296 4.24692C15.8819 4.19503 15.8819 3.98557 15.725 3.88167C15.5673 3.77682 15.9868 3.72397 16.1446 3.77682C16.4064 3.88166 16.4064 4.1423 16.3009 4.35176C16.2494 4.45769 16.0917 4.66572 15.8296 4.77152C15.5673 4.87768 15.15 4.87768 14.887 4.77152C14.6241 4.61454 14.3102 4.56158 13.8376 4.45768C13.419 4.29821 12.9478 4.40485 12.5798 4.71868C12.2143 4.92779 12.2143 5.03335 12.0572 5.34778L12.0046 5.39955C11.9525 5.45287 11.795 5.19104 11.5325 5.34778C11.2711 5.50618 11.375 5.76753 11.2711 5.81931C11.0619 5.97723 10.9563 5.92451 10.5909 6.23787C10.275 6.60586 10.3288 6.71023 9.8544 6.92029C9.38431 7.18283 9.22767 7.28649 9.22767 7.28649C9.22767 7.28649 9.43643 7.39134 9.64637 7.39134C9.80334 7.39134 10.0661 7.3398 10.3288 7.12879C10.3288 7.12879 10.3791 7.44311 10.6421 7.44311C10.904 7.44311 11.0619 7.18283 11.0619 7.0243C11.0619 6.86697 11.0091 6.86697 10.7989 6.8158C10.6422 6.7626 10.904 6.50315 11.2189 6.60585C11.375 6.65715 11.5325 6.92029 11.5325 7.07715C11.4807 7.23531 11.375 7.4969 11.1655 7.65317C10.904 7.81062 10.537 7.91595 10.2231 7.86417C9.96054 7.81062 9.64635 7.81062 9.12151 7.81062C8.70247 7.81062 8.23167 7.96879 8.02066 8.28274C7.7586 8.54457 7.65399 8.64966 7.60317 9.06846L7.55058 9.12071C7.55058 9.22687 7.34097 9.06846 7.13079 9.2784C6.86968 9.48715 7.07843 9.69792 6.97382 9.80253C6.81661 9.95974 6.65796 9.95974 6.44969 10.3783C6.1881 10.7452 6.24118 10.8501 5.87319 11.2169C5.50699 11.5315 5.34859 11.6891 5.34859 11.6891C5.34859 11.6891 5.61068 11.741 5.76837 11.6891C5.92547 11.6359 6.18812 11.5315 6.39532 11.2691C6.39532 11.2691 6.4497 11.5826 6.76353 11.5315C6.97382 11.4789 7.13079 11.3224 7.13079 11.0611C7.07843 10.9024 6.97382 10.8501 6.76353 10.8501C6.60667 10.8501 6.92121 10.5353 7.13079 10.5353C7.39215 10.5353 7.49774 10.7452 7.55058 10.9555C7.55058 11.1125 7.49772 11.3741 7.34098 11.5826C7.1308 11.7934 6.76352 12.0028 6.50395 12.0028C6.1881 12.0028 5.87319 12.1074 5.40154 12.2134C4.98203 12.3189 4.51122 12.7365 4.4078 13.0511C4.24868 13.4181 4.24869 13.6273 4.24869 13.8889V13.942C3.72479 13.942 3.56625 14.2563 3.77762 14.6744C3.77762 14.6744 3.51496 14.8861 3.4113 15.3569C3.30478 15.8283 3.35812 15.881 3.09594 16.3001C2.78055 16.7738 2.67677 16.9285 2.67677 16.9285C2.67677 16.9285 2.9386 16.9285 3.09594 16.8251C3.25291 16.7738 3.46273 16.5628 3.56628 16.2486C3.56628 16.2486 3.7248 16.4582 3.98638 16.4048C4.1968 16.3001 4.30046 16.0902 4.24869 15.881C4.1968 15.7233 3.934 15.619 3.77762 15.6709C3.72478 15.7233 3.93402 15.4108 4.09218 15.3569C4.30046 15.3047 4.56253 15.4614 4.61537 15.6709C4.6675 15.8284 4.72021 16.0902 4.56252 16.3525C4.40781 16.6148 4.14324 16.8251 3.82988 16.9285C3.56627 17.0336 3.30481 17.1918 2.83316 17.4003C2.46696 17.6113 2.10027 18.133 2.10027 18.4486C2.04838 18.8151 2.10028 19.0774 2.20418 19.3399C1.68148 19.4441 1.57604 19.8638 1.89023 20.1247C1.89023 20.1247 1.73407 20.4396 1.68147 20.9649C1.68147 21.4356 1.78586 21.4876 1.6284 21.9605C1.41847 22.4319 1.41844 22.6413 1.41844 22.6413C1.41844 22.6413 1.6284 22.5885 1.78585 22.4319C1.89022 22.3267 2.04838 22.1157 2.10027 21.8025C2.10027 21.8025 2.31023 22.0648 2.52005 21.8541C2.72951 21.6984 2.72951 21.3828 2.62371 21.2251C2.46697 21.1221 2.36304 21.1221 2.25724 21.1734C2.10027 21.2786 2.25725 20.8576 2.41494 20.754C2.62369 20.7029 2.83315 20.754 2.9386 20.9117C3.09593 21.1221 3.09593 21.3312 3.04487 21.5925C2.99108 21.9074 2.78057 22.2205 2.52005 22.3783C2.25727 22.5359 2.04838 22.7452 1.68147 23.1121C1.3668 23.375 1.10497 23.9495 1.20935 24.3178C1.26171 24.6323 1.2617 24.7907 1.41844 24.999V25.0506C1.10496 25.366 1.10498 25.7329 1.4707 25.9422C1.4707 25.9422 1.31419 26.3089 1.41844 26.7813C1.52424 27.253 1.6284 27.3041 1.57603 27.7778C1.52426 28.2999 1.52428 28.5107 1.52428 28.5107C1.52428 28.5107 1.73408 28.4058 1.83739 28.1958C1.94331 28.0909 2.04841 27.8285 1.99592 27.516C1.99592 27.516 2.25725 27.7242 2.46695 27.4624C2.57109 27.253 2.52002 26.9372 2.36304 26.8861C2.1531 26.7813 2.15314 26.7813 1.99592 26.8861C1.8374 27.0413 1.89024 26.6232 2.0484 26.4671C2.15314 26.3089 2.46697 26.3617 2.62371 26.4671C2.72951 26.5703 2.88575 26.7813 2.88575 27.0954C2.88575 27.4098 2.78054 27.7778 2.57108 27.9863C2.36305 28.1957 2.20419 28.4578 1.89023 28.8761C1.68149 29.192 1.57605 29.8205 1.73409 30.1345C1.89024 30.5001 1.9433 30.6583 2.20418 30.816V30.8688C2.25726 30.9209 1.94332 31.0783 1.99592 31.3397C2.1003 31.6542 2.36305 31.6543 2.41494 31.759C2.46695 31.9692 2.36305 32.0739 2.57108 32.4916C2.78054 32.9647 2.88576 32.9647 2.99108 33.4355C3.04487 33.9607 3.09594 34.1699 3.09594 34.1699C3.09594 34.1699 3.30481 34.0125 3.35813 33.8025C3.35813 33.6458 3.46274 33.3835 3.30481 33.0698C3.30481 33.0698 3.56629 33.1732 3.72481 32.9123C3.77765 32.6502 3.67149 32.4916 3.51499 32.387C3.41133 32.2836 3.20043 32.387 3.14962 32.4916C3.14962 32.598 2.93861 32.3362 3.14962 32.0203C3.25292 31.8653 3.51499 31.8112 3.67149 31.9167C3.77765 32.0203 3.98638 32.178 4.09218 32.4403C4.14324 32.7537 4.09219 33.1217 3.98638 33.3835C3.82988 33.6458 3.7248 33.9607 3.56628 34.4317C3.41132 34.799 3.46275 35.428 3.72481 35.6894C3.93403 36.004 4.09219 36.1617 4.35354 36.2654L4.4078 36.3181C4.45898 36.3709 4.14323 36.5272 4.30044 36.7902C4.40779 37.0528 4.6675 36.9999 4.72022 37.1044C4.82543 37.2617 4.77235 37.4194 5.08702 37.7849C5.40156 38.1541 5.507 38.1003 5.71574 38.5704C5.92544 39.0428 6.03136 39.2531 6.03136 39.2531C6.03136 39.2531 6.13502 39.0428 6.13502 38.8343C6.1881 38.6758 6.13502 38.4157 5.97805 38.1541C5.97805 38.1541 6.24121 38.1541 6.2925 37.8378C6.2925 37.6283 6.13502 37.4713 5.97805 37.4194C5.8732 37.4194 5.71576 37.4713 5.66315 37.6283C5.61067 37.7331 5.45489 37.4194 5.50702 37.209C5.55831 37.0528 5.82119 36.8946 6.03136 36.9472C6.1881 36.9999 6.3953 37.1044 6.55502 37.3665C6.71128 37.6283 6.76355 37.9955 6.65799 38.257C6.60669 38.5704 6.60666 38.8858 6.50395 39.4082C6.44968 39.7767 6.71128 40.3537 6.97382 40.615C7.28849 40.825 7.44534 40.9298 7.75858 40.9824V41.034C7.65397 41.2431 7.81215 41.5589 7.81215 41.5589C8.07374 41.7674 8.23166 41.6112 8.33675 41.7155C8.49349 41.8723 8.38804 41.9256 8.75603 42.2405C9.17435 42.5014 9.27947 42.4485 9.54129 42.8695C9.85441 43.2357 10.0134 43.3924 10.0134 43.3924C10.0134 43.3924 10.0661 43.1825 10.0661 42.974C10.0134 42.8154 9.96057 42.5552 9.69874 42.3451C9.69874 42.3451 10.0134 42.2929 9.96057 42.0295C9.96057 41.7674 9.80334 41.7155 9.59436 41.6623C9.43643 41.6112 9.27946 41.7155 9.27946 41.9256C9.22769 42.0295 9.06939 41.7674 9.06939 41.5589C9.06939 41.4003 9.22769 41.192 9.43644 41.192C9.59437 41.192 9.85439 41.2431 10.0661 41.4537C10.275 41.6623 10.4323 42.0295 10.3791 42.2929C10.3791 42.6069 10.4842 42.9211 10.5371 43.4445C10.5371 43.6039 10.6421 44.2307 11.2189 44.4921L11.4807 44.1259C11.0619 43.9169 10.8509 43.1825 11.2711 42.8695C11.4807 42.7118 12.0046 42.8154 11.8472 42.8695C11.795 42.9211 11.7421 42.974 11.6899 43.1313C11.5325 43.4445 11.6377 43.5503 11.795 43.655L12.4756 42.7118ZM25.0447 1.62662C24.9159 2.05268 24.3157 2.65203 24.6616 3.1025C24.8373 3.3304 25.206 3.37372 25.4061 3.11939C25.7497 2.68321 25.1821 2.03721 25.0447 1.62662ZM24.9931 3.87797C23.7804 3.87797 24.3055 2.34534 23.7342 2.20205C23.4194 2.14933 23.2108 2.36009 23.2108 2.36009C23.2108 1.24543 24.3449 1.54093 24.4158 1.67839C24.4158 1.23924 24.6996 0.870062 24.9931 0.578125C25.3404 0.868277 25.4998 1.20555 25.589 1.64983C25.659 1.60091 26.7581 1.25102 26.9315 2.25346C26.8677 2.22728 26.617 2.14933 26.4597 2.20205C25.6993 2.39449 26.2059 3.87797 24.9931 3.87797ZM37.4228 42.7118C37.9459 42.0823 38.5234 42.4485 38.5234 42.2405C38.4696 41.9784 38.7328 41.7155 39.0475 41.821C39.0994 41.8723 39.1523 41.4537 39.3612 41.192C39.6233 40.9298 40.1489 40.7199 40.6706 40.7739C40.9855 40.7739 41.2478 40.7739 41.2478 40.7739C41.4581 40.7199 41.8245 40.7199 41.9287 40.615H41.9812C42.2951 40.5627 42.5574 40.4059 42.7674 40.1447C42.9771 39.8293 43.0818 39.1482 42.6098 38.9372C42.3477 38.8858 41.8776 39.1482 42.0333 39.2014C42.0861 39.2014 42.191 39.2014 42.2951 39.3048C42.5061 39.5156 42.3477 39.9333 42.0333 39.9869C41.6147 40.0385 41.6666 39.5669 41.6147 39.7236C41.5616 39.9333 41.2996 40.1447 41.038 40.2495C40.7767 40.3537 40.5141 40.3004 40.5141 40.3004C40.5141 40.3004 40.6189 40.1958 40.8816 39.8829C41.1959 39.62 41.1423 39.463 41.4581 38.9902C41.9287 38.257 42.3477 38.5193 42.2951 38.3624C42.2443 38.1003 42.5061 37.7849 42.7674 37.8378C42.8199 37.8378 42.8199 37.4194 42.9772 37.1576C43.1348 36.7902 43.5031 36.5272 43.9203 36.423C44.3401 36.3709 44.6532 36.2137 44.6532 36.2137C44.8112 36.1617 44.9687 36.1094 45.126 36.004L45.2308 35.9507C45.4906 35.8463 45.8062 35.5839 45.9119 35.3239C46.0685 34.9561 46.0159 34.275 45.4906 34.1699C45.1782 34.1699 44.8113 34.4844 44.9687 34.4844C45.0198 34.4844 45.0729 34.5368 45.2308 34.5874C45.4906 34.6936 45.4393 35.1652 45.1782 35.2172C44.8112 35.3239 44.7065 35.0085 44.7065 35.1652C44.7065 35.3752 44.4968 35.6893 44.2876 35.8463C44.0252 35.9507 43.7634 36.004 43.7634 36.004C43.7634 36.004 43.867 35.8981 44.0771 35.5319C44.2876 35.1652 44.1826 35.0085 44.3914 34.4844C44.6017 33.9076 45.0198 33.6458 44.9687 33.5934C44.7577 33.2245 44.9687 32.9123 45.283 32.8598C45.283 32.8598 45.2308 32.7026 45.3871 32.3362C45.5448 31.9691 45.7551 31.6008 46.1735 31.4445C46.5401 31.2876 46.9073 31.0255 46.9073 31.0255C47.0125 30.9209 47.2215 30.7625 47.3273 30.6584L47.3784 30.6062C47.5882 30.396 47.7452 30.1344 47.798 29.8205C47.85 29.4536 47.641 28.825 47.1179 28.8761C46.8025 28.8761 46.4871 29.3484 46.6978 29.2954C46.7487 29.2442 46.8025 29.2442 46.9597 29.2954C47.2746 29.4536 47.3273 29.8205 47.0652 30.029C46.7487 30.24 46.5402 29.8205 46.5935 30.029C46.6455 30.24 46.5401 30.5542 46.3321 30.7625C46.1735 30.9209 45.9119 31.0255 45.9119 31.0255C45.9119 31.0255 45.9644 30.9209 46.0685 30.5001C46.1735 30.0816 46.0685 29.9782 46.1206 29.4005C46.1735 28.5627 46.6978 28.7732 46.5935 28.4578C46.3321 27.9335 46.7487 27.8826 46.6978 27.8285C46.6978 27.7778 46.5935 27.4098 46.5402 27.0954C46.5402 26.7287 46.6979 26.3617 47.0125 26.1524C47.1178 26.0488 47.5353 25.6276 47.5353 25.6276C47.641 25.5232 47.9024 25.2076 48.0082 24.999L48.061 24.9458C48.2169 24.6844 48.3223 24.3702 48.27 24.056C48.2169 23.6893 47.85 23.1121 47.3784 23.2696C47.1179 23.375 47.0125 23.8458 47.0652 23.7948C47.1178 23.7948 47.2215 23.6894 47.4314 23.741C47.6941 23.741 47.85 24.161 47.641 24.4233C47.3783 24.7371 47.0652 24.3702 47.1689 24.5277C47.2215 24.7371 47.2215 25.1039 47.0652 25.3139C46.9597 25.5232 46.7487 25.7329 46.7487 25.7329C46.7487 25.7329 46.7487 25.575 46.7487 25.1567C46.8025 24.6844 46.6455 24.6323 46.5402 24.056C46.4355 23.2696 46.8535 23.1121 46.7487 23.0611C46.4871 22.8503 46.4871 22.4823 46.7487 22.3783C46.8025 22.3267 46.4871 22.0648 46.3834 21.6984C46.3321 21.3313 46.3834 21.0166 46.6455 20.6511C46.8535 20.2833 47.0652 19.9693 47.0652 19.9693C47.1178 19.8105 47.2746 19.4983 47.3273 19.3399V19.2871C47.4314 18.9728 47.4314 18.6586 47.3273 18.3442C47.1689 17.978 46.6979 17.558 46.2786 17.8203C46.0159 17.978 46.0159 18.5004 46.0685 18.3975C46.1206 18.3442 46.1735 18.2914 46.3834 18.2393C46.6455 18.1866 46.9073 18.5537 46.8025 18.8701C46.5935 19.2358 46.2269 18.9728 46.3321 19.0774C46.4871 19.2358 46.5402 19.6022 46.4871 19.8638C46.4356 20.1247 46.2269 20.3357 46.2269 20.3357C46.2269 20.3357 46.2269 20.1778 46.1206 19.7583C46.0159 19.3399 45.9119 19.3399 45.6497 18.7613C45.3359 18.0291 45.7552 17.7147 45.5979 17.7665C45.3359 17.7665 45.2308 17.2446 45.4393 17.086C45.4906 17.086 45.126 16.8251 44.9163 16.5092C44.7577 16.1957 44.7065 15.8284 44.9163 15.4614C45.0728 15.0947 45.1782 14.5192 45.1782 14.5192C45.2308 14.3089 45.283 14.152 45.2308 13.9943V13.942C45.283 13.6273 45.1782 13.3135 45.0198 13.0511C44.8113 12.7365 44.1826 12.4228 43.867 12.7893C43.6571 13.0511 43.7103 13.5753 43.8155 13.4181C43.867 13.366 43.867 13.2607 44.0252 13.2081C44.3401 13.0511 44.6532 13.366 44.6017 13.6802C44.5497 14.1002 44.0771 13.8889 44.2352 13.9943C44.4435 14.152 44.5497 14.4664 44.5497 14.7282C44.5497 14.9898 44.4435 15.2519 44.4435 15.2519C44.4435 15.2519 44.3914 15.0946 44.1826 14.7282C44.0252 14.3611 43.867 14.3611 43.5031 13.8889C42.9772 13.2081 43.5031 12.8939 43.187 12.8939C42.6622 12.8407 42.9245 12.3189 42.8723 12.3189C42.8199 12.2651 42.5061 12.1074 42.2443 11.8463C41.9812 11.5826 41.8776 11.2691 41.9287 10.8501C42.0333 10.4314 42.0861 9.80253 42.0861 9.80253C42.0861 9.6446 42.0861 9.53951 42.0333 9.38324V9.33076C41.9812 9.01586 41.7193 8.70167 41.4581 8.48994C41.1959 8.23085 40.4618 8.07293 40.1996 8.48994C40.095 8.75522 40.3571 9.2784 40.4104 9.12071C40.4104 9.06846 40.4104 8.96433 40.5654 8.8596C40.829 8.64966 41.1959 8.85959 41.2478 9.22686C41.2478 9.59235 40.7767 9.53951 40.9331 9.59235C41.1423 9.69792 41.3526 9.95974 41.4581 10.2216C41.5103 10.4827 41.4581 10.7452 41.4581 10.7452C41.4581 10.7452 41.3527 10.6413 41.0904 10.3272C40.829 9.95974 40.6706 10.0126 40.1996 9.6446C39.5695 9.17284 39.7797 8.75521 39.6753 8.75521C39.0475 8.85959 39.2563 8.33594 39.2033 8.28274C39.1524 8.28274 38.7849 8.23085 38.4696 8.01984C38.2084 7.81062 37.999 7.54974 37.9459 7.12879C37.9459 6.71023 37.5269 5.6622 37.5269 5.6622V5.60984C37.3705 5.29589 37.16 5.08548 36.8982 4.92779C36.584 4.77152 35.9024 4.77152 35.7973 5.24436C35.6929 5.55748 36.0072 5.97723 36.0072 5.81931C36.0608 5.76753 36.0072 5.60984 36.1121 5.50618C36.3221 5.24436 36.7404 5.34778 36.8465 5.71446C37.0037 6.0809 36.5316 6.0809 36.6894 6.13421C36.8981 6.1861 37.16 6.39437 37.3186 6.60585C37.4227 6.86697 37.4228 7.12879 37.4228 7.12879C37.4228 7.12879 37.3186 7.02431 37.0037 6.8158C36.6368 6.55302 36.5316 6.60586 35.9554 6.39437C35.2213 6.02865 35.5354 5.55747 35.2212 5.6622C34.6983 5.8193 34.6983 5.29589 34.645 5.29589C34.5927 5.29589 34.2266 5.29589 33.9117 5.19104C33.545 5.08548 33.2828 4.8246 33.1777 4.45768C33.0202 4.03757 32.8106 3.46191 32.8106 3.46191C32.7058 3.30399 32.6018 3.19889 32.4973 3.09416V3.04215C32.2348 2.83233 31.9729 2.77961 31.6573 2.83233C31.3432 2.88494 31.0814 3.04215 31.239 3.41038C31.2902 3.61817 31.5019 3.67066 31.5019 3.67066C31.5019 3.67066 31.5019 3.46191 31.8155 3.41038C31.8155 3.41038 32.0245 3.41038 32.1299 3.56533C32.2863 3.77682 32.0245 3.88167 32.1299 3.93201C32.7058 4.24692 32.7058 4.77152 32.6529 4.71868C32.0245 4.09042 31.0814 3.98556 31.0814 3.98556C30.8709 4.24691 30.4535 4.19503 30.4535 3.82883H30.0866C29.6142 3.77682 29.1947 3.77682 28.6186 3.51404C28.6186 3.51404 29.8774 3.41037 30.5577 2.93778C31.0814 2.62216 31.5534 2.36034 31.9207 2.41413C32.1828 2.41413 32.4441 2.51921 32.6529 2.72749C32.7058 2.77961 32.8639 2.57027 33.1237 2.62216C33.4402 2.72748 33.3882 3.04215 33.4919 3.04215C33.7016 3.09416 33.8586 3.04215 34.2786 3.30398C34.645 3.56533 34.645 3.67066 35.1689 3.77682C35.641 3.88166 35.85 3.98556 35.85 3.98556C35.85 3.98556 35.6929 4.1423 35.4831 4.1423C35.3272 4.19502 35.0115 4.24692 34.7484 4.09042C34.7484 4.09042 34.802 4.35176 34.5404 4.45768C34.3309 4.5104 34.1733 4.40485 34.0686 4.24692C34.0165 4.19503 34.0165 3.98557 34.1732 3.88167C34.3309 3.77682 33.9116 3.72397 33.7537 3.77682C33.4919 3.88166 33.4919 4.1423 33.5975 4.35176C33.6489 4.45769 33.8066 4.66572 34.0686 4.77152C34.3309 4.87768 34.7484 4.87768 35.0114 4.77152C35.2743 4.61454 35.5882 4.56158 36.0608 4.45768C36.4793 4.29821 36.9506 4.40485 37.3186 4.71868C37.6841 4.92779 37.6841 5.03335 37.8411 5.34778L37.8938 5.39955C37.9459 5.45287 38.1034 5.19104 38.3659 5.34778C38.6273 5.50618 38.5234 5.76753 38.6273 5.81931C38.8365 5.97723 38.9419 5.92451 39.3074 6.23787C39.6233 6.60586 39.5695 6.71023 40.044 6.92029C40.5141 7.18283 40.6706 7.28649 40.6706 7.28649C40.6706 7.28649 40.4618 7.39134 40.252 7.39134C40.095 7.39134 39.8323 7.3398 39.5695 7.12879C39.5695 7.12879 39.5191 7.44311 39.2562 7.44311C38.9944 7.44311 38.8365 7.18283 38.8365 7.0243C38.8365 6.86697 38.8893 6.86697 39.0994 6.8158C39.2562 6.7626 38.9944 6.50315 38.6795 6.60585C38.5234 6.65715 38.3659 6.92029 38.3659 7.07715C38.4177 7.23531 38.5234 7.4969 38.7328 7.65317C38.9944 7.81062 39.3612 7.91595 39.6753 7.86417C39.9378 7.81062 40.252 7.81062 40.7767 7.81062C41.1959 7.81062 41.6666 7.96879 41.8776 8.28274C42.1397 8.54457 42.2443 8.64966 42.2951 9.06846L42.3477 9.12071C42.3477 9.22687 42.5574 9.06846 42.7674 9.2784C43.0287 9.48715 42.82 9.69792 42.9246 9.80253C43.0818 9.95974 43.2403 9.95974 43.4486 10.3783C43.7103 10.7452 43.6571 10.8501 44.0252 11.2169C44.3914 11.5315 44.5497 11.6891 44.5497 11.6891C44.5497 11.6891 44.2876 11.741 44.1299 11.6891C43.9729 11.6359 43.7103 11.5315 43.5031 11.2691C43.5031 11.2691 43.4486 11.5826 43.1349 11.5315C42.9246 11.4789 42.7674 11.3224 42.7674 11.0611C42.8199 10.9024 42.9246 10.8501 43.1349 10.8501C43.2916 10.8501 42.9771 10.5353 42.7674 10.5353C42.5061 10.5353 42.4007 10.7452 42.3477 10.9555C42.3477 11.1125 42.4007 11.3741 42.5574 11.5826C42.7675 11.7934 43.1349 12.0028 43.3944 12.0028C43.7103 12.0028 44.0252 12.1074 44.4968 12.2134C44.9164 12.3189 45.3872 12.7365 45.4906 13.0511C45.6497 13.4181 45.6497 13.6273 45.6497 13.8889V13.942C46.1735 13.942 46.3321 14.2563 46.1206 14.6744C46.1206 14.6744 46.3834 14.8861 46.4871 15.3569C46.5935 15.8283 46.5401 15.881 46.8025 16.3001C47.1178 16.7738 47.2215 16.9285 47.2215 16.9285C47.2215 16.9285 46.9597 16.9285 46.8025 16.8251C46.6455 16.7738 46.4355 16.5628 46.3321 16.2486C46.3321 16.2486 46.1735 16.4582 45.9119 16.4048C45.7016 16.3001 45.5979 16.0902 45.6497 15.881C45.7016 15.7233 45.9644 15.619 46.1206 15.6709C46.1735 15.7233 45.9644 15.4108 45.8062 15.3569C45.5979 15.3047 45.3359 15.4614 45.283 15.6709C45.2308 15.8284 45.1782 16.0902 45.3359 16.3525C45.4906 16.6148 45.7551 16.8251 46.0685 16.9285C46.3321 17.0336 46.5935 17.1918 47.0652 17.4003C47.4314 17.6113 47.798 18.133 47.798 18.4486C47.85 18.8151 47.798 19.0774 47.6941 19.3399C48.2169 19.4441 48.3223 19.8638 48.0082 20.1247C48.0082 20.1247 48.1642 20.4396 48.2169 20.9649C48.2169 21.4356 48.1125 21.4876 48.27 21.9605C48.4798 22.4319 48.4798 22.6413 48.4798 22.6413C48.4798 22.6413 48.27 22.5885 48.1125 22.4319C48.0082 22.3267 47.85 22.1157 47.798 21.8025C47.798 21.8025 47.5882 22.0648 47.3784 21.8541C47.1689 21.6984 47.1689 21.3828 47.2746 21.2251C47.4314 21.1221 47.5353 21.1221 47.641 21.1734C47.798 21.2786 47.641 20.8576 47.4833 20.754C47.2746 20.7029 47.0652 20.754 46.9597 20.9117C46.8025 21.1221 46.8025 21.3312 46.8535 21.5925C46.9073 21.9074 47.1179 22.2205 47.3784 22.3783C47.641 22.5359 47.85 22.7452 48.2169 23.1121C48.5316 23.375 48.7934 23.9495 48.689 24.3178C48.6367 24.6323 48.6367 24.7907 48.4798 24.999V25.0506C48.7934 25.366 48.7934 25.7329 48.4277 25.9422C48.4277 25.9422 48.5842 26.3089 48.4798 26.7813C48.3741 27.253 48.27 27.3041 48.3224 27.7778C48.3741 28.2999 48.3741 28.5107 48.3741 28.5107C48.3741 28.5107 48.1642 28.4058 48.061 28.1958C47.9551 28.0909 47.85 27.8285 47.9024 27.516C47.9024 27.516 47.641 27.7242 47.4314 27.4624C47.3273 27.253 47.3784 26.9372 47.5353 26.8861C47.7452 26.7813 47.7451 26.7813 47.9024 26.8861C48.061 27.0413 48.0082 26.6232 47.85 26.4671C47.7452 26.3089 47.4314 26.3617 47.2746 26.4671C47.1689 26.5703 47.0125 26.7813 47.0125 27.0954C47.0125 27.4098 47.1178 27.7778 47.3273 27.9863C47.5353 28.1957 47.6941 28.4578 48.0082 28.8761C48.2169 29.192 48.3224 29.8205 48.1642 30.1345C48.0082 30.5001 47.9551 30.6583 47.6941 30.816V30.8688C47.641 30.9209 47.9551 31.0783 47.9024 31.3397C47.798 31.6542 47.5353 31.6543 47.4833 31.759C47.4314 31.9692 47.5353 32.0739 47.3273 32.4916C47.1178 32.9647 47.0125 32.9647 46.9073 33.4355C46.8535 33.9607 46.8025 34.1699 46.8025 34.1699C46.8025 34.1699 46.5935 34.0125 46.5402 33.8025C46.5402 33.6458 46.4355 33.3835 46.5935 33.0698C46.5935 33.0698 46.3321 33.1732 46.1735 32.9123C46.1206 32.6502 46.2269 32.4916 46.3834 32.387C46.4871 32.2836 46.6978 32.387 46.7487 32.4916C46.7487 32.598 46.9597 32.3362 46.7487 32.0203C46.6455 31.8653 46.3834 31.8112 46.2269 31.9167C46.1207 32.0203 45.9119 32.178 45.8062 32.4403C45.7551 32.7537 45.8062 33.1217 45.9119 33.3835C46.0685 33.6458 46.1735 33.9607 46.3321 34.4317C46.4871 34.799 46.4355 35.428 46.1735 35.6894C45.9644 36.004 45.8062 36.1617 45.5448 36.2654L45.4906 36.3181C45.4393 36.3709 45.7552 36.5272 45.5979 36.7902C45.4906 37.0528 45.2308 36.9999 45.1782 37.1044C45.0728 37.2617 45.126 37.4194 44.8113 37.7849C44.4968 38.1541 44.3914 38.1003 44.1826 38.5704C43.9729 39.0428 43.867 39.2531 43.867 39.2531C43.867 39.2531 43.7634 39.0428 43.7634 38.8343C43.7103 38.6758 43.7634 38.4157 43.9203 38.1541C43.9203 38.1541 43.6571 38.1541 43.6059 37.8378C43.6059 37.6283 43.7634 37.4713 43.9203 37.4194C44.0252 37.4194 44.1826 37.4713 44.2352 37.6283C44.2876 37.7331 44.4435 37.4194 44.3914 37.209C44.3401 37.0528 44.0771 36.8946 43.867 36.9472C43.7103 36.9999 43.5031 37.1044 43.3434 37.3665C43.187 37.6283 43.1348 37.9955 43.2403 38.257C43.2916 38.5704 43.2916 38.8858 43.3944 39.4082C43.4486 39.7767 43.187 40.3537 42.9246 40.615C42.6098 40.825 42.453 40.9298 42.1397 40.9824V41.034C42.2443 41.2431 42.0861 41.5589 42.0861 41.5589C41.8245 41.7674 41.6666 41.6112 41.5616 41.7155C41.4048 41.8723 41.5103 41.9256 41.1424 42.2405C40.7239 42.5014 40.6189 42.4485 40.3571 42.8695C40.044 43.2357 39.8849 43.3924 39.8849 43.3924C39.8849 43.3924 39.8323 43.1825 39.8323 42.974C39.8849 42.8154 39.9378 42.5552 40.1996 42.3451C40.1996 42.3451 39.8849 42.2929 39.9378 42.0295C39.9378 41.7674 40.0951 41.7155 40.3039 41.6623C40.4619 41.6112 40.6189 41.7155 40.6189 41.9256C40.6706 42.0295 40.829 41.7674 40.829 41.5589C40.829 41.4003 40.6706 41.192 40.4618 41.192C40.3039 41.192 40.044 41.2431 39.8323 41.4537C39.6233 41.6623 39.4661 42.0295 39.5192 42.2929C39.5192 42.6069 39.4142 42.9211 39.3612 43.4445C39.3612 43.6039 39.2563 44.2307 38.6795 44.4921L38.4177 44.1259C38.8365 43.9169 39.0475 43.1825 38.6273 42.8695C38.4177 42.7118 37.8938 42.8154 38.0512 42.8695C38.1034 42.9211 38.1562 42.974 38.2085 43.1313C38.3659 43.4445 38.2606 43.5503 38.1034 43.655L37.4228 42.7118ZM16.2998 46.6385L15.5781 46.3398L15.4081 46.5042C15.3536 46.5596 15.3162 46.6086 15.298 46.6519C15.2746 46.7105 15.2801 46.7624 15.3152 46.8087C15.3349 46.8368 15.3974 46.8762 15.5 46.9292L15.4774 46.9848L14.7972 46.7016L14.8202 46.6444C14.8981 46.6659 14.9706 46.6606 15.0392 46.6286C15.1071 46.5988 15.2081 46.5186 15.3428 46.3908L16.7528 45.0495L16.7813 45.0616L16.8216 47.0568C16.8264 47.2473 16.8428 47.3724 16.8704 47.433C16.8911 47.4788 16.9325 47.5151 16.9918 47.5478L16.9704 47.6044L15.9799 47.1931L16.0017 47.1363L16.0432 47.1535C16.1231 47.187 16.1844 47.1995 16.2245 47.1893C16.2536 47.1821 16.275 47.1651 16.2872 47.1335C16.2944 47.1143 16.2991 47.0972 16.3009 47.0742C16.3021 47.0635 16.3057 47.0194 16.3021 46.9411L16.2998 46.6385ZM16.295 46.5052L16.2843 45.6694L15.6772 46.2493L16.295 46.5052ZM20.2 46.2148L20.0288 46.7943L19.9725 46.777C19.9784 46.6321 19.9701 46.5266 19.9473 46.4564C19.9239 46.3862 19.8808 46.3229 19.8203 46.2663C19.7867 46.2369 19.7191 46.2065 19.6205 46.1761L19.4623 46.1296L18.9748 47.7797C18.9431 47.8891 18.9292 47.9596 18.9322 47.9897C18.9357 48.0214 18.9526 48.0517 18.9812 48.0825C19.0104 48.1143 19.0555 48.1385 19.1158 48.1559L19.1858 48.1778L19.1691 48.2354L18.058 47.9052L18.0747 47.8482L18.1465 47.8682C18.2075 47.8863 18.2602 47.8911 18.3034 47.879C18.3347 47.8718 18.3627 47.8535 18.3905 47.8224C18.4083 47.8004 18.4347 47.7377 18.4658 47.6285L18.9536 45.9794L18.8 45.9338C18.6574 45.8917 18.5438 45.891 18.4609 45.9326C18.345 45.9907 18.2531 46.0956 18.1813 46.2473L18.1212 46.2293L18.2924 45.6501L20.2 46.2148ZM21.8013 48.0563L21.0273 47.9414L20.903 48.1434C20.8623 48.2105 20.8382 48.2663 20.8308 48.3133C20.8225 48.3744 20.8403 48.4255 20.886 48.4608C20.9107 48.4831 20.981 48.5057 21.0936 48.5326L21.0852 48.5916L20.3558 48.4838L20.3641 48.4255C20.4453 48.4231 20.5143 48.4006 20.5726 48.3559C20.6325 48.3088 20.7125 48.2069 20.8108 48.0493L21.8581 46.4051L21.888 46.4099L22.4063 48.3361C22.457 48.5186 22.5023 48.6355 22.5453 48.688C22.5763 48.7267 22.6253 48.7533 22.6907 48.769L22.6824 48.8295L21.6226 48.6713L21.6309 48.6121L21.6753 48.6192C21.7603 48.6299 21.8216 48.6263 21.8596 48.6085C21.8861 48.5955 21.9009 48.5718 21.9062 48.5392C21.9097 48.5196 21.9097 48.4984 21.905 48.4782C21.905 48.4675 21.8943 48.4249 21.8753 48.3483L21.8013 48.0563ZM21.763 47.9277L21.5516 47.1198L21.1031 47.8288L21.763 47.9277ZM24.4846 47.9011L24.4579 48.5189C24.452 48.6405 24.4544 48.7155 24.4698 48.7465C24.4827 48.7802 24.5074 48.8056 24.544 48.826C24.5816 48.8454 24.6501 48.8572 24.75 48.8619L24.7464 48.9225L23.6231 48.8759L23.6241 48.8144C23.7271 48.8191 23.7962 48.812 23.8342 48.7946C23.8707 48.778 23.8977 48.7536 23.9144 48.7232C23.9315 48.693 23.9408 48.618 23.946 48.4982L24.0115 47.052C24.0163 46.9315 24.0127 46.8565 23.9996 46.8233C23.9844 46.7918 23.9605 46.7656 23.9251 46.7462C23.8887 46.7239 23.8199 46.7132 23.7191 46.7087L23.7203 46.6487L24.6864 46.6891C25.0023 46.701 25.2285 46.7688 25.363 46.8886C25.4945 47.0077 25.5576 47.1523 25.5503 47.3251C25.542 47.4679 25.4933 47.5896 25.3992 47.6908C25.3067 47.7885 25.1802 47.8532 25.0212 47.8861C24.9156 47.9053 24.7352 47.9113 24.4843 47.9011H24.4846ZM24.5331 46.8109L24.4905 47.7733C24.5269 47.7768 24.5529 47.7792 24.5716 47.7792C24.7043 47.7852 24.8074 47.7489 24.8833 47.6732C24.9576 47.5984 25.0011 47.475 25.0084 47.3077C25.0156 47.1425 24.9856 47.0209 24.9168 46.941C24.8478 46.8613 24.7434 46.8194 24.6005 46.8132L24.5331 46.8109ZM28.3704 46.3675L28.4693 47.1323L28.4067 47.1394C28.3333 46.9468 28.2254 46.8065 28.0815 46.7164C27.9387 46.6279 27.7842 46.5943 27.6196 46.6165C27.4828 46.6354 27.3617 46.6922 27.2578 46.7874C27.1543 46.8815 27.0825 46.9963 27.0476 47.1314C27.0012 47.3051 26.99 47.4919 27.0162 47.6929C27.0404 47.8907 27.0896 48.0678 27.1619 48.223C27.2311 48.3788 27.3252 48.4921 27.4414 48.5614C27.5588 48.6302 27.7005 48.653 27.8687 48.6302C28.0079 48.6104 28.1295 48.5629 28.2383 48.4866C28.345 48.4121 28.4504 48.2895 28.56 48.1222L28.5854 48.3148C28.479 48.4595 28.3622 48.5714 28.2369 48.6468C28.1105 48.7233 27.9571 48.7726 27.7805 48.7968C27.5461 48.8289 27.3313 48.8087 27.1383 48.7395C26.9432 48.6694 26.7852 48.5522 26.6635 48.3895C26.5429 48.2238 26.4679 48.0412 26.4415 47.8431C26.4153 47.633 26.4439 47.4249 26.5304 47.2223C26.6138 47.0173 26.7432 46.8491 26.915 46.7219C27.0896 46.5923 27.2798 46.5136 27.4888 46.4847C27.6435 46.4658 27.8099 46.4764 27.9917 46.5203C28.0961 46.547 28.1622 46.5577 28.1886 46.5529C28.2214 46.5493 28.2513 46.5321 28.2734 46.5032C28.2959 46.4729 28.3069 46.4326 28.3069 46.3751L28.3704 46.3675ZM31.2497 45.8022L31.3775 46.3908L31.3203 46.4036C31.2562 46.2757 31.197 46.1854 31.1416 46.136C31.0888 46.0859 31.0211 46.0515 30.9411 46.0328C30.8963 46.0221 30.8245 46.0304 30.7228 46.0515L30.5622 46.0886L30.9291 47.7653C30.9534 47.8767 30.975 47.9446 30.9926 47.9706C31.0113 47.9955 31.0418 48.0139 31.0808 48.0274C31.1225 48.0403 31.1724 48.0401 31.2335 48.0262L31.3073 48.0102L31.318 48.0701L30.1853 48.3239L30.1723 48.2656L30.2448 48.2485C30.3069 48.2349 30.3557 48.2125 30.3901 48.1802C30.4135 48.1595 30.4295 48.1289 30.4369 48.0883C30.4428 48.0613 30.4345 47.9926 30.4107 47.8839L30.0421 46.2044L29.8868 46.2405C29.7406 46.2729 29.6412 46.3282 29.5896 46.4041C29.5159 46.5121 29.485 46.6493 29.4952 46.8157L29.4337 46.8284L29.3056 46.2398L31.2497 45.8022ZM33.5628 46.6469L32.8339 46.9377L32.8255 47.1736C32.8243 47.2523 32.8315 47.3134 32.8485 47.3572C32.8718 47.416 32.911 47.4486 32.9686 47.4569C33.0022 47.4629 33.0752 47.4486 33.1846 47.4141L33.2077 47.4698L32.5211 47.7429L32.4992 47.6869C32.5682 47.6459 32.6183 47.5907 32.6457 47.5214C32.6738 47.4527 32.6923 47.3253 32.6993 47.138L32.7911 45.1913L32.821 45.1794L34.2274 46.5829C34.3619 46.7166 34.4601 46.794 34.5218 46.8178C34.5685 46.8353 34.6248 46.8344 34.6897 46.8155L34.7121 46.8723L33.7137 47.2696L33.6921 47.2124L33.7331 47.1957C33.8145 47.1645 33.8657 47.1308 33.8883 47.0955C33.905 47.0701 33.9065 47.0419 33.8955 47.0105C33.8883 46.9936 33.8772 46.9761 33.8633 46.9592C33.8574 46.9497 33.8276 46.9184 33.7731 46.8621L33.5628 46.6469ZM33.4662 46.555L32.8803 45.9633L32.8421 46.8032L33.4662 46.555ZM35.7602 45.1398L36.0962 45.7397C36.1514 45.8393 36.1921 45.8986 36.2175 45.9177C36.2422 45.935 36.2756 45.9448 36.3174 45.9448C36.36 45.9455 36.4069 45.9312 36.4616 45.8999L36.5256 45.8642L36.5556 45.9168L35.5466 46.4922L35.5172 46.4382L35.5813 46.4026C35.6365 46.3707 35.6754 46.3348 35.6991 46.2957C35.7165 46.2663 35.7217 46.2344 35.7173 46.1941C35.7149 46.1664 35.6861 46.1024 35.6321 46.004L34.9166 44.7307C34.8617 44.6313 34.8209 44.5723 34.7963 44.5531C34.7719 44.5349 34.7372 44.5252 34.6969 44.5252C34.6545 44.5252 34.6057 44.5402 34.5522 44.5708L34.4891 44.6067L34.4582 44.5531L35.4674 43.9778L35.4972 44.0316L35.4327 44.0673C35.3769 44.0999 35.3377 44.1353 35.3142 44.1752C35.297 44.2028 35.2898 44.2357 35.2946 44.277C35.2958 44.3062 35.3266 44.3705 35.3802 44.4657L35.6884 45.0142L36.3695 44.6252L36.0616 44.0765C36.0065 43.9778 35.9646 43.9181 35.9427 43.9004C35.9163 43.8803 35.8819 43.8718 35.842 43.8718C35.7982 43.8718 35.7499 43.886 35.6963 43.9179L35.6346 43.9532L35.6029 43.9004L36.6113 43.3234L36.642 43.3776L36.5782 43.4134C36.5226 43.4457 36.4818 43.4822 36.4599 43.5205C36.4427 43.5479 36.4363 43.5813 36.4404 43.6223C36.4428 43.6515 36.4706 43.7141 36.5256 43.8112L37.2416 45.0862C37.2967 45.1853 37.3363 45.2444 37.361 45.2633C37.3854 45.2815 37.4202 45.2915 37.4613 45.2917C37.5052 45.2917 37.5531 45.2767 37.6076 45.2462L37.6702 45.2103L37.7001 45.2633L36.6919 45.8378L36.6625 45.7851L36.7243 45.7504C36.7813 45.7178 36.8209 45.6811 36.8428 45.6427C36.8599 45.6153 36.8674 45.5805 36.8633 45.5401C36.8597 45.5114 36.8314 45.4485 36.7774 45.3505L36.441 44.7509L35.7602 45.1398Z" fill="#FFCB00"/>
<path fill-rule="evenodd" clip-rule="evenodd" d="M25.0009 45.7515C36.4256 45.7515 45.7009 36.4762 45.7009 25.0001C45.7009 13.5243 36.4256 4.24805 25.0009 4.24805C13.5764 4.24805 4.30054 13.5243 4.30054 25.0001C4.30054 36.4762 13.5764 45.7515 25.0009 45.7515ZM25.0009 45.4195C36.2429 45.4195 45.3699 36.2926 45.3699 25.0001C45.3699 13.7077 36.2429 4.58009 25.0009 4.58009C13.7591 4.58009 4.63166 13.7077 4.63166 25.0001C4.63166 36.2926 13.7591 45.4195 25.0009 45.4195Z" fill="#FFCB00"/>
<path fill-rule="evenodd" clip-rule="evenodd" d="M25.0002 43.2156C14.9715 43.2156 6.81177 35.0548 6.81177 24.9744C6.81177 14.9444 14.9715 6.78516 25.0002 6.78516C35.0284 6.78516 43.188 14.9444 43.188 24.9744C43.188 34.6821 35.4545 43.2156 25.0002 43.2156Z" fill="#E30016"/>
<path fill-rule="evenodd" clip-rule="evenodd" d="M17.4238 12.1445V12.1757L17.4418 12.1598L17.4238 12.1445Z" fill="#ECEDED"/>
<path fill-rule="evenodd" clip-rule="evenodd" d="M24.2241 24.7637C25.7333 24.7637 26.9568 25.9626 26.9568 27.4417C26.9568 28.9205 25.7333 30.1196 24.2241 30.1196C22.7149 30.1196 21.4915 28.9205 21.4915 27.4417C21.4915 25.9626 22.7149 24.7637 24.2241 24.7637Z" fill="#1B1918"/>
<path fill-rule="evenodd" clip-rule="evenodd" d="M15.3497 37.7058C15.2734 37.9447 15.3237 38.0572 15.3838 38.2959C15.0588 38.2015 14.7789 38.1091 14.7004 37.7234C14.6005 37.6727 14.5249 37.604 14.4705 37.5266L14.3985 37.4904C14.0807 37.3308 14.0172 36.9808 14.1045 36.7687L14.1128 36.6912C14.1993 35.8166 15.2022 35.4558 15.963 35.6361C16.1447 35.6408 16.4216 35.7661 16.5667 35.8393C16.7877 35.95 17.0773 36.0551 17.3198 35.951C17.7131 35.7803 17.9196 35.0141 18.0308 34.6408L18.4901 33.1131C18.6939 32.4349 18.9275 31.7329 19.106 31.0503C19.1585 30.8478 19.1392 30.4331 19.1168 30.2087C19.1009 30.1648 19.0863 30.1195 19.0725 30.0729L18.9669 30.0296C18.8986 30.0016 18.8323 29.9731 18.7676 29.9443L18.7184 29.9754C18.0874 30.3743 17.3073 30.2969 16.6551 29.9969C16.2181 29.7956 15.7858 29.5654 15.3614 29.3388C14.9855 29.1381 14.6116 28.9339 14.2378 28.7293C14.0658 28.6355 13.842 28.4968 13.666 28.4219C13.47 28.3424 13.2234 28.2021 13.0038 28.2573C12.7853 28.3122 12.7949 28.601 12.7771 28.7758C12.5103 28.6392 12.3602 28.5466 12.3602 28.2029C12.3602 28.1179 12.373 28.0148 12.4057 27.9214C12.0591 27.9131 11.6315 27.9992 11.5512 28.3714C11.5051 28.6187 11.6445 28.9178 11.5536 29.2215C11.5571 29.2207 11.5607 29.2192 11.5643 29.218L11.8955 29.1831C11.8145 29.3996 11.758 29.6099 11.5278 29.7176L11.5183 29.7374C11.4331 29.9174 11.288 30.022 11.1378 30.0668C10.9303 30.4321 10.4533 30.4321 10.3075 30.2399C9.72386 30.2039 9.43584 29.1544 9.49808 28.6978C9.59472 27.9754 10.2031 27.1304 10.8162 26.7579C11.4067 26.3996 12.142 26.3573 12.8153 26.3655C13.7729 26.3774 14.6872 26.6454 15.6135 26.8464C15.9181 26.9136 16.2542 26.9263 16.5652 26.9166L16.5711 26.9164C16.558 26.802 16.5471 26.6841 16.538 26.5621C16.4902 25.915 16.489 25.339 16.5428 24.6953C16.6081 23.9193 16.5475 23.3521 16.4065 22.5774C16.3121 22.0494 16.2325 21.7348 15.9383 21.2963C15.7323 20.992 15.3967 20.6674 15.0062 20.6571C14.9393 20.6559 14.8134 20.7693 14.7657 20.81C14.6144 20.9409 14.4732 21.0309 14.2812 21.0899C14.0115 21.175 13.7867 21.2389 13.5163 21.103C13.4036 21.0463 13.3412 20.9862 13.2695 20.8878C13.2372 20.8443 13.2064 20.8089 13.1633 20.7757C13.0679 20.7019 12.9519 20.5955 12.9554 20.4662C12.9554 20.4196 12.968 20.3819 12.9896 20.3502L12.9029 20.0516C12.7965 19.9676 12.7137 19.8799 12.6794 19.7467C12.5936 19.6853 12.5345 19.6023 12.4722 19.5107C12.3983 19.404 12.3641 19.2708 12.3529 19.1426L12.3494 19.1041C12.2406 18.9635 12.1992 18.7233 12.1992 18.5705C12.1992 18.2967 12.4824 18.1524 12.682 18.0322C12.896 17.897 13.0302 17.677 13.296 17.5865L13.5504 17.5221C13.8269 17.4618 13.9633 17.4105 14.128 17.1726C14.5323 16.5952 15.279 16.5031 15.9305 16.5309C16.0861 16.5369 16.2407 16.5519 16.3951 16.5709L16.3987 16.5661L16.4105 16.5653C16.5291 16.4227 16.6603 16.2691 16.8298 16.1965C17.079 16.0857 17.2857 16.0773 17.5382 16.1973C17.813 16.3288 17.8579 16.4938 17.9039 16.7717C17.9217 16.8828 17.9463 17.0365 17.9533 17.1585C18.2224 17.3459 18.6516 17.7125 18.8491 17.9193C19.7455 18.8633 20.0446 19.8948 20.6038 21.0246C20.8452 21.5725 21.1387 22.0118 21.538 22.3137C21.7134 21.3022 21.817 20.2731 21.817 19.2464C21.817 18.8383 21.8007 18.4299 21.7636 18.0232C21.6042 16.2294 21.002 13.6942 19.5672 12.4712C19.1397 12.1264 18.4287 11.6837 17.8669 11.9549C17.5623 12.102 17.4921 12.2353 17.2284 12.5894L17.2519 12.0313C17.2767 11.4384 17.6841 10.9622 18.2679 10.8422C19.2184 10.668 20.1405 11.2444 20.8152 11.9054C20.7333 11.4261 20.7094 10.9279 20.7869 10.4543C20.9358 9.55429 21.6704 8.30406 22.7575 8.63706C23.01 8.71442 23.3412 8.88627 23.6772 8.99909L23.096 9.13952C22.2658 9.34018 21.9553 10.3076 21.9402 11.0642C21.9462 11.7655 22.4395 12.6844 22.7528 13.3047L22.9476 13.707C22.8887 12.2976 23.5009 10.5593 25.1002 11.2186C25.2727 11.2897 25.5772 11.5982 25.813 11.7586L25.3059 11.7872C23.7712 11.8742 24.2231 13.9407 24.58 14.8706C24.6744 15.1143 24.7668 15.3574 24.8491 15.6039C24.9793 14.9378 25.2866 14.2611 25.8953 14.0418C26.1617 13.9531 26.4209 13.9483 26.6741 14.0795C27.0226 14.2604 27.3806 14.5809 27.714 14.8017L26.9548 14.6923C26.3961 14.6117 26.1251 15.2496 26.0375 15.7028C25.8675 16.3855 26.1164 17.294 26.299 17.9825C26.4239 17.4196 26.7106 16.8866 27.3125 16.8697C27.5262 16.8564 27.7229 16.8978 27.9071 17.0084C28.1121 17.1311 28.3819 17.4095 28.6407 17.5994L28.0902 17.5846C27.5303 17.5693 27.4041 17.6426 27.3674 18.2135C27.3231 18.8816 27.4944 19.7272 27.6065 20.5026C27.7375 20.233 27.9522 19.9977 28.2421 19.9397C28.418 19.8967 28.5968 19.92 28.7538 20.0113C28.8825 20.0863 29.0201 20.3028 29.1778 20.4516L28.8777 20.5304C28.4146 20.6521 28.497 21.2547 28.497 21.6183C28.4993 21.7584 28.5017 21.8974 28.5017 22.0375C28.5017 22.0446 28.5017 22.0525 28.5017 22.0599C28.8028 21.9512 28.9522 21.8511 29.2321 21.6347L29.3805 21.5204C30.0767 20.9876 30.937 20.5714 31.8138 20.4556C32.5037 20.3674 33.3111 20.5057 33.9716 20.7073C34.6759 20.9245 35.1991 21.264 35.7999 21.6787C36.2751 22.0063 37.2884 22.4823 37.753 21.901C38.2444 21.2856 37.634 20.4714 37.2521 19.972C36.7063 19.2568 34.4955 18.0902 33.6228 17.6133C32.223 16.8364 30.8264 16.0985 30.0862 14.5918C29.5842 13.5674 29.5819 12.3469 30.1648 11.3559C30.4304 10.9075 31.1434 10.0581 31.7303 10.3961C32.2827 10.7154 32.0734 11.4538 31.8266 11.8983C31.4614 12.5741 31.4811 13.0916 31.9771 13.7201C32.6568 14.5841 34.4827 15.6539 35.4859 16.135C36.6812 16.7107 37.9969 17.5112 38.8214 18.5729C39.5287 19.478 39.9376 20.4828 39.8375 21.6403C39.7554 22.6112 39.1251 23.3516 38.3014 23.8174C38.2436 23.85 38.0146 23.9811 37.9361 24.0564C38.0087 24.1266 38.1609 24.1659 38.1757 24.3186C38.2858 25.0408 38.3651 25.7378 38.3651 26.4699C38.3651 27.2727 38.2275 28.1727 38.1243 28.972C38.0679 29.4206 37.9726 29.9838 37.9726 30.4313C37.9726 31.0741 38.6374 31.3968 38.6374 32.0516C38.6374 32.4865 37.7076 33.8838 37.4147 34.3014C37.2486 34.5385 36.4443 35.6415 36.4443 35.9112C36.4445 35.9172 36.4449 35.9207 36.4448 35.9219C36.4745 36.1021 36.7801 35.9789 36.9087 35.9789C36.8918 36.4277 36.3479 36.6631 35.9475 36.5534C35.8281 36.7851 35.6537 37.0072 35.462 37.1723C34.9847 37.5805 34.4379 37.5869 33.8636 37.7378C33.6694 37.7896 33.4653 37.8479 33.2662 37.8678C33.05 37.8924 32.7774 37.8673 32.5573 37.8177C32.5215 37.9299 32.5644 38.094 32.5748 38.2101C32.3124 38.1364 32.131 38.111 32.0316 37.8134L31.9593 37.7771C31.8011 37.6975 31.7036 37.5723 31.6551 37.4392L31.6455 37.4345C31.2132 37.218 31.2337 36.6616 31.4644 36.5351C31.4632 36.517 31.462 36.4982 31.462 36.478C31.462 36.3841 31.4513 36.3987 31.5082 36.3272C31.6828 36.0677 31.7784 35.9537 32.0605 35.8036C32.3597 35.6407 32.8955 35.4906 33.2343 35.5056C33.5533 35.5232 33.8688 35.6427 34.1819 35.6427C34.5217 35.6427 34.6046 35.6057 34.8151 35.3322C35.1302 34.9213 35.5878 33.9232 35.7628 33.4219C35.9251 32.957 35.9776 32.6738 36.0157 32.1928C36.048 31.7873 35.7804 31.4215 35.6403 31.058C35.4404 30.5538 35.0669 29.962 34.7907 29.4869L34.3616 28.7328C34.1246 29.079 33.8788 29.7442 33.8366 30.142C33.7969 30.5188 33.9594 30.6557 33.8306 31.0809C33.6698 31.6147 33.7253 31.4134 33.2043 31.7057C32.7309 31.9725 30.9232 33.0544 30.7372 33.4986C30.7196 33.5409 30.6223 33.7923 30.7105 33.8254L30.8151 33.8493C30.8802 34.1805 30.6564 34.2308 30.3608 34.2078C30.2167 34.1983 30.0608 34.1419 29.952 34.0403C29.9496 34.0415 29.9472 34.0439 29.9448 34.0451C29.9365 34.0511 29.9256 34.0583 29.9199 34.0676C29.7905 34.28 29.7793 34.3443 29.5841 34.5475C29.1753 34.9746 28.8341 34.828 28.3631 34.94C28.0665 35.0142 27.3108 35.161 27.0325 35.0866C26.9274 35.0573 26.8177 35.0191 26.7133 34.9738C26.6957 35.0246 26.6821 35.0668 26.6955 35.0949L26.7694 35.4064L26.4627 35.3226C26.3074 35.2449 26.2156 35.1198 26.1743 34.9889C26.1431 34.9711 26.1143 34.9514 26.0882 34.93L26.0589 34.9474L26.0696 34.9141C25.9907 34.8445 25.9365 34.7606 25.9038 34.6734C25.5419 34.4801 25.5226 34.0364 25.683 33.8593C25.6711 33.6885 25.7067 33.5231 25.802 33.3755C26.0301 33.0218 26.521 32.8937 26.914 32.8493C27.1939 32.8177 27.8802 32.8065 28.156 32.9496C28.7866 33.1015 28.7924 32.9037 29.2368 32.5413C29.8191 32.0649 30.3338 31.3841 30.8779 30.8547C31.1816 30.5552 31.3548 30.2641 31.3987 29.8306C31.45 29.3083 31.0269 28.2818 30.7978 27.7968C30.6337 27.4524 30.5159 26.9586 30.4485 26.5593C29.187 27.5045 27.9882 29.1176 26.7869 29.8298C25.9636 30.5665 25.2263 30.9109 23.9696 30.8559L23.684 30.8948C23.1157 30.9726 22.5348 31.0061 21.9611 30.9905C21.9129 31.2889 21.8218 31.5507 21.6831 31.8599L21.6497 31.9393C21.3812 32.5372 20.9215 33.2578 20.5904 33.8368C20.3726 34.2204 20.1151 34.635 19.9205 35.0299C19.8254 35.212 19.7092 35.526 19.7092 35.7331C19.7092 35.7792 19.7152 35.8522 19.7519 35.8878C19.8874 36.0244 20.1004 35.9846 20.2751 35.9846C20.1109 36.258 20.0304 36.3993 19.6876 36.4611C19.5614 36.4852 19.3974 36.4925 19.2631 36.4447C19.1582 36.7023 18.8858 37.0054 18.8136 37.0842C18.3199 37.624 17.6777 37.6619 17.0012 37.7357C16.8546 37.756 16.7109 37.7926 16.5666 37.832C16.0568 37.9597 15.785 37.7641 15.3497 37.7077V37.7058ZM21.847 27.4114C21.847 26.0604 22.9443 24.9614 24.2968 24.9614C25.6473 24.9614 26.7476 26.0604 26.7476 27.4114C26.7476 28.7636 25.6473 29.8635 24.2968 29.8635C22.9443 29.8635 21.847 28.7636 21.847 27.4114ZM13.2714 20.0406L13.4012 20.1394C13.4593 20.1204 13.5129 20.1019 13.5843 20.1004C13.663 20.0981 13.795 20.1227 13.8648 20.087C14.1603 19.9371 14.0547 19.6802 13.8102 19.6199C13.7642 19.7365 13.654 19.8193 13.519 19.8193C13.4951 19.8193 13.4722 19.817 13.4503 19.8122C13.41 19.8571 13.356 19.8906 13.2906 19.9086C13.2753 19.9122 13.2599 19.9157 13.2448 19.9169C13.2472 19.9241 13.2484 19.9302 13.2496 19.9355L13.2714 20.0406Z" fill="#1B1918"/>
<path fill-rule="evenodd" clip-rule="evenodd" d="M22.0215 27.4112C22.0215 28.6744 23.0476 29.6711 24.2968 29.6854C25.5515 29.6711 26.5724 28.6789 26.5724 27.4112C26.5724 26.1588 25.5484 25.1367 24.2968 25.1367C23.0437 25.1367 22.0215 26.1588 22.0215 27.4112ZM22.1616 27.4112C22.1616 28.5969 23.1245 29.5322 24.2968 29.5453C25.474 29.5322 26.4321 28.6007 26.4321 27.4112C26.4321 26.2362 25.4711 25.277 24.2968 25.277C23.1209 25.277 22.1616 26.2362 22.1616 27.4112Z" fill="white"/>
<path fill-rule="evenodd" clip-rule="evenodd" d="M27.5745 27.4106C27.5745 29.2177 26.094 30.6885 24.2968 30.6885C22.4981 30.6885 21.0193 29.2209 21.0193 27.4106C21.0193 26.3027 21.5703 25.3229 22.4129 24.7303H22.4153C22.5748 24.6196 22.7401 24.521 22.919 24.437L22.9178 24.4406C22.9559 24.4244 22.9942 24.406 23.0322 24.3898V24.3862C23.627 24.1386 24.2884 24.0716 24.9215 24.1953V24.196C25.6367 24.3336 26.2951 24.7123 26.7752 25.2663L26.7728 25.2687C26.7958 25.2956 26.8186 25.3227 26.8408 25.35L26.8418 25.3488C26.9774 25.5135 27.0959 25.6936 27.196 25.8844L27.1958 25.8867C27.2671 26.024 27.2915 26.0594 27.3824 26.313L27.3834 26.3107C27.4716 26.557 27.5271 26.8129 27.5546 27.0717L27.557 27.0709C27.5677 27.1823 27.5745 27.2967 27.5745 27.4115V27.4106ZM21.9338 27.4106C21.9338 26.1076 22.9922 25.0476 24.2968 25.0476C25.5995 25.0476 26.6607 26.1076 26.6607 27.4106C26.6607 28.7152 25.5995 29.7762 24.2968 29.7762C22.9922 29.7762 21.9338 28.7152 21.9338 27.4106Z" fill="#FFCB00"/>
<path fill-rule="evenodd" clip-rule="evenodd" d="M15.0229 37.3648C14.8127 37.2652 14.7506 37.8508 15.1476 38.0499C15.0036 37.7441 15.436 37.5627 15.0229 37.3648Z" fill="white"/>
<path fill-rule="evenodd" clip-rule="evenodd" d="M14.3743 36.7811C14.2043 36.6982 14.1529 37.1744 14.4759 37.3365C14.359 37.0891 14.7101 36.9415 14.3743 36.7811Z" fill="white"/>
<path fill-rule="evenodd" clip-rule="evenodd" d="M14.6714 36.9844C14.4918 36.8989 14.4399 37.3989 14.7784 37.57C14.6546 37.3085 15.0249 37.153 14.6714 36.9844Z" fill="white"/>
<path fill-rule="evenodd" clip-rule="evenodd" d="M11.1271 29.4773C11.0547 29.6369 11.4974 29.6744 11.6418 29.3702C11.4134 29.4853 11.2687 29.1603 11.1271 29.4773Z" fill="white"/>
<path fill-rule="evenodd" clip-rule="evenodd" d="M10.7795 29.7842C10.6985 29.9659 11.2 30.0065 11.3628 29.663C11.1026 29.7939 10.9402 29.4274 10.7795 29.7842Z" fill="white"/>
<path fill-rule="evenodd" clip-rule="evenodd" d="M10.4491 30.0658C10.3717 30.237 10.8484 30.2769 11.0043 29.9496C10.7572 30.074 10.6026 29.7262 10.4491 30.0658Z" fill="white"/>
<path fill-rule="evenodd" clip-rule="evenodd" d="M26.4447 34.6493C26.2853 34.5734 26.2387 35.0158 26.5398 35.1663C26.4299 34.9339 26.7567 34.7983 26.4447 34.6493Z" fill="white"/>
<path fill-rule="evenodd" clip-rule="evenodd" d="M25.8917 33.9683C25.7222 33.8868 25.6714 34.3608 25.9944 34.5246C25.878 34.2757 26.2276 34.1285 25.8917 33.9683Z" fill="white"/>
<path fill-rule="evenodd" clip-rule="evenodd" d="M26.1759 34.2655C25.998 34.1807 25.943 34.6796 26.2844 34.8507C26.1605 34.5889 26.5304 34.4346 26.1759 34.2655Z" fill="white"/>
<path fill-rule="evenodd" clip-rule="evenodd" d="M32.2968 37.4635C32.1409 37.3889 32.0919 37.8308 32.3937 37.9814C32.2839 37.7496 32.6108 37.6133 32.2968 37.4635Z" fill="white"/>
<path fill-rule="evenodd" clip-rule="evenodd" d="M31.6142 36.6934C31.436 36.6078 31.3809 37.1076 31.7221 37.2785C31.5986 37.0171 31.9699 36.862 31.6142 36.6934Z" fill="white"/>
<path fill-rule="evenodd" clip-rule="evenodd" d="M31.9297 37.0353C31.7504 36.9492 31.6965 37.4495 32.0366 37.6205C31.9139 37.3585 32.2832 37.2028 31.9297 37.0353Z" fill="white"/>
<path fill-rule="evenodd" clip-rule="evenodd" d="M26.1258 34.1868C26.2026 34.1549 26.2998 34.1915 26.3833 34.3261C26.5104 34.1004 26.9277 33.7462 27.4944 33.8261C27.0605 33.7994 26.4881 34.1575 26.3585 34.5679C26.4169 34.5334 26.5783 34.5595 26.6397 34.7445C26.7834 34.822 26.9581 34.8841 27.0784 34.9178C27.2824 34.9724 27.9568 34.8614 28.3218 34.77C28.6858 34.6834 29.1068 34.7942 29.4598 34.4254C29.8133 34.0577 29.6987 34.0016 29.8479 33.9C29.9951 33.7995 29.9951 33.7995 29.9951 33.7995C29.9951 33.7995 30.0636 34.0124 30.3724 34.0334C30.6806 34.0577 30.6672 33.9896 30.6672 33.9896C30.6672 33.9896 30.3724 33.9219 30.5778 33.4298C30.783 32.9398 32.5028 31.9007 33.1193 31.553C33.7345 31.2078 33.5404 31.4433 33.6652 31.0286C33.7908 30.6149 33.6189 30.5613 33.6652 30.1213C33.7113 29.6885 33.9855 28.9512 34.2477 28.5928L34.2465 28.5845C33.9527 28.0512 33.705 27.5968 33.5836 27.111C33.4455 26.578 33.211 25.861 32.0728 25.8752C31.525 25.88 31.027 26.1144 30.6208 26.3865L30.6003 26.4147C30.6003 26.4147 30.7254 27.2412 30.9534 27.7199C31.1812 28.2018 31.6261 29.2747 31.5701 29.8446C31.5124 30.4135 31.2386 30.738 30.9988 30.9745C30.7591 31.2076 29.7562 32.3358 29.3459 32.6715C28.9361 33.0058 28.8559 33.2975 28.0924 33.1084C27.8235 32.9395 25.7033 32.809 25.8617 33.9092C25.9307 33.852 26.0679 33.9521 26.086 34.0197C26.2339 33.5502 26.6868 33.3775 27.0516 33.4288C26.5314 33.455 26.1948 33.7145 26.1259 34.1865L26.1258 34.1868Z" fill="white"/>
<path fill-rule="evenodd" clip-rule="evenodd" d="M27.6682 27.4116C27.6682 28.2738 27.3444 29.0604 26.812 29.657C28.4543 28.6296 30.1627 25.6867 32.1892 25.6645C33.419 25.6516 33.6338 26.5051 33.7479 26.9651C33.8748 27.4707 34.136 27.9534 34.4378 28.5133L34.4983 28.6233L34.9403 29.4C35.2775 29.9802 35.6594 30.6372 35.8006 30.9937C35.9572 31.3995 36.2242 31.7444 36.1874 32.2052C36.1507 32.671 36.1264 32.9018 35.9255 33.4773C35.7189 34.0692 35.2006 35.1115 34.9516 35.4358C34.6969 35.767 34.5592 35.8138 34.182 35.8138C33.8546 35.8138 33.5498 35.6942 33.2255 35.6764C32.978 35.6657 32.4697 35.7757 32.1426 35.9539C31.8793 36.0938 31.8053 36.193 31.6491 36.4248C31.6396 36.4374 31.6344 36.4538 31.6344 36.4767C31.6344 36.513 31.632 36.5533 31.6621 36.6141C31.6867 36.6189 31.8084 36.7616 31.8338 36.7816C32.1118 36.2609 32.384 36.2327 32.8767 36.2416C32.4375 36.3027 32.029 36.4308 31.8971 36.9418C32.0044 36.981 32.1234 37.0251 32.1488 37.1367C32.3416 36.6603 32.8649 36.6663 33.2575 36.5468C33.094 36.6489 32.151 36.8372 32.2154 37.3638C32.3297 37.3627 32.5141 37.4758 32.4972 37.5901C32.5103 37.603 32.5365 37.6284 32.5486 37.6375C32.6135 37.6538 32.9573 37.7287 33.2472 37.6956C33.4153 37.6787 33.6018 37.6284 33.8194 37.5703C34.3644 37.427 34.9091 37.4173 35.3501 37.0403C35.696 36.7428 35.8429 36.3698 35.845 36.3662L35.8785 36.2882C36.0354 36.4931 36.6173 36.3781 36.7164 36.1502C36.5099 36.1502 36.3228 36.2451 36.2745 35.9455C36.2735 35.9348 36.2721 35.9221 36.2721 35.9108C36.2721 35.642 36.6589 35.0792 37.2737 34.2019C37.8466 33.3853 38.4652 32.3305 38.4652 32.051C38.4652 31.4616 37.8004 31.1477 37.8004 30.4306C37.8004 30.1669 37.8712 29.6026 37.9536 28.9495C38.0668 28.0735 38.1928 27.0817 38.1928 26.4692C38.1928 25.7194 38.1182 25.0826 38.0052 24.3415C37.9993 24.2763 37.7575 24.1877 37.7474 24.0633C37.7426 23.985 37.8161 23.8933 38.2167 23.6667C39.0812 23.178 39.5957 22.455 39.6661 21.625C39.7546 20.5996 39.4335 19.635 38.6856 18.6782C38.0157 17.8156 36.9112 17.012 35.4112 16.2896C34.3964 15.8029 32.5317 14.703 31.8418 13.826C31.0951 12.8799 31.4881 12.1618 31.6753 11.8153C31.7635 11.6564 32.1695 10.8482 31.6442 10.5445C31.2314 10.3069 30.6189 10.9264 30.3131 11.4429C30.1106 11.7872 29.5092 13.0219 30.241 14.5154C30.9639 15.9871 32.3571 16.7133 33.7061 17.462C34.9692 18.152 36.8768 19.1953 37.389 19.8667C37.9499 20.6005 38.3995 21.3669 37.8876 22.0079C37.4185 22.5949 36.4518 22.3367 35.702 21.8197C34.9799 21.3213 34.5522 21.0659 33.921 20.8712C33.1706 20.6423 32.411 20.5523 31.8359 20.6258C31.3845 20.6854 30.477 20.8976 29.4852 21.6564L29.3375 21.7705C29.0342 22.0049 28.8949 22.1142 28.4256 22.2675C28.4208 22.5909 28.4043 22.9323 28.3569 23.2812C28.718 22.6113 29.3071 22.9802 29.458 23.5327C28.7775 23.3631 28.8266 23.9215 28.7589 24.4897C28.7358 24.7014 28.7101 24.8992 28.6746 25.049C28.5016 25.7298 28.1186 26.457 27.6415 26.9809C27.6589 27.1214 27.6682 27.266 27.6682 27.4116Z" fill="white"/>
<path fill-rule="evenodd" clip-rule="evenodd" d="M17.7917 11.798C18.4311 11.4896 19.1957 11.949 19.6761 12.3361C20.8642 13.3489 21.7096 15.4693 21.9349 18.0062C21.9715 18.4065 21.9889 18.8189 21.9889 19.2447C21.9889 20.2556 21.8884 21.3321 21.6865 22.4599C21.7847 22.5247 21.8853 22.5779 21.9858 22.6222C22.1935 21.485 22.2996 20.3931 22.2996 19.3583C22.2996 18.893 22.2772 18.4382 22.2357 17.9991C21.9738 15.3571 21.0815 13.2417 19.7923 12.1957C19.3081 11.8354 18.3717 11.3662 17.7917 11.798Z" fill="#FFCB00"/>
<path fill-rule="evenodd" clip-rule="evenodd" d="M20.9848 12.3325C20.3423 11.6033 19.3296 10.8202 18.2995 11.009C17.7721 11.1174 17.4441 11.5464 17.4236 12.0361C18.0729 11.1643 19.148 11.5925 19.8529 12.1157C21.1634 13.1806 22.0675 15.3203 22.3338 17.9881C22.4875 19.5834 22.3649 21.0769 22.0839 22.6499C22.3238 22.7414 22.5864 22.7867 22.8416 22.8196C23.461 19.5958 23.2026 17.4056 21.899 14.5008C21.5933 13.7673 21.2592 13.0828 20.9848 12.3325Z" fill="white"/>
<path fill-rule="evenodd" clip-rule="evenodd" d="M22.5626 24.5218C22.6853 24.4477 22.8145 24.3807 22.947 24.323C23.2823 22.9386 23.5858 21.3855 23.5858 19.7882C23.5858 17.857 23.0467 16.1246 22.2315 14.3809C21.761 13.3108 21.0814 12.2701 21.0649 11.0626C21.0851 10.1342 21.5523 8.70726 22.7067 8.80081C21.7296 8.50137 21.0851 9.70363 20.9566 10.4814C20.8623 11.0567 20.9235 11.6895 21.0729 12.3005C21.3085 13.0509 21.7252 13.8288 21.9904 14.4642C23.0537 16.8383 23.4644 18.7017 23.177 21.2947L23.1675 21.3744C23.0398 22.4374 22.8207 23.4846 22.5628 24.5218H22.5626Z" fill="#FFCB00"/>
<path fill-rule="evenodd" clip-rule="evenodd" d="M23.0614 24.2756C23.297 24.1809 23.5477 24.1143 23.8069 24.076C24.0887 22.9006 24.3272 21.7248 24.3483 20.515V20.5138C24.3488 20.4867 24.3495 20.4572 24.3495 20.429C24.3495 18.6894 23.9493 16.973 23.4056 15.3323C23.297 14.9941 23.2274 14.825 23.1354 14.4893L22.5978 13.3794C22.1735 12.5393 21.7729 11.7427 21.7676 11.0633C21.7847 10.2088 22.1478 9.19028 23.0553 8.97094C21.7729 8.54035 21.1847 10.024 21.1641 11.0625C21.1787 12.2562 21.8586 13.2824 22.3216 14.3405C22.7915 15.3432 23.3021 16.5425 23.5184 17.8253C23.9225 20.0792 23.5255 22.3398 23.0614 24.2758V24.2756Z" fill="white"/>
<path fill-rule="evenodd" clip-rule="evenodd" d="M23.9127 24.0619C24.0242 24.049 24.1386 24.0408 24.2524 24.0397C24.5099 22.9463 24.7571 21.7289 24.7571 20.4743C24.7571 20.0253 24.7265 19.5703 24.6518 19.1154C24.4314 17.7882 24.1854 16.4777 23.7206 15.2133C23.5145 14.6481 23.3022 14.0686 23.3022 13.465C23.3022 12.5311 23.834 10.9595 25.0343 11.3757C23.2411 10.6365 22.8298 13.3447 23.2787 14.6115L23.4985 15.2987C24.0481 16.9633 24.4519 18.6921 24.447 20.4577V20.5169V20.5193C24.4269 21.7189 24.1902 22.894 23.9127 24.0624V24.0619Z" fill="#FFCB00"/>
<path fill-rule="evenodd" clip-rule="evenodd" d="M24.355 24.0405C24.5568 24.0453 24.7562 24.0654 24.9468 24.1041C25.2259 23.132 25.4904 22.0211 25.4904 20.9313C25.4904 20.8015 25.4893 20.6729 25.4796 20.5438C25.4234 19.6534 25.246 18.853 25.0553 18.0426C24.9533 17.5939 24.8432 17.0113 24.8432 16.4254C24.8432 16.3407 24.8455 16.2556 24.8503 16.1738C24.8079 16.0338 24.7657 15.8939 24.718 15.7559C24.6246 15.4648 24.5216 15.1957 24.4193 14.9312C24.0353 13.9311 23.5743 11.7115 25.2961 11.614C24.0709 10.7807 23.3997 12.4992 23.3997 13.4639C23.3997 14.0511 23.6108 14.6241 23.8143 15.1795C24.2811 16.4496 24.5313 17.7659 24.7493 19.1003C24.8245 19.5604 24.857 20.0211 24.857 20.4761C24.857 21.7298 24.6113 22.9472 24.3552 24.0405H24.355Z" fill="white"/>
<path fill-rule="evenodd" clip-rule="evenodd" d="M25.0448 24.1242C25.129 24.1433 25.2142 24.1657 25.2955 24.1906C25.5694 23.224 25.8298 22.1167 25.8298 20.9923C25.8298 20.8385 25.8251 20.6842 25.8151 20.5306C25.794 19.826 25.6223 19.1188 25.4557 18.4374C25.2757 17.7148 25.1051 17.0195 25.1051 16.3338C25.1051 15.7937 25.2334 15.0174 25.5618 14.5768C25.8132 14.2521 26.2035 14.1219 26.5944 14.2313C26.3873 14.1238 26.1783 14.1278 25.9504 14.2037C25.1641 14.4871 24.9412 15.6878 24.9412 16.4255C24.9412 17.0033 25.0493 17.5789 25.1503 18.0197C25.3447 18.8342 25.5186 19.6395 25.5784 20.5368C25.5867 20.6696 25.5906 20.7998 25.5906 20.9315C25.5906 22.0298 25.3228 23.1465 25.0448 24.1242Z" fill="#FFCB00"/>
<path fill-rule="evenodd" clip-rule="evenodd" d="M25.3886 24.2216C25.5149 24.2648 25.6384 24.3156 25.7564 24.3722C26.166 23.5634 26.4053 22.8388 26.4805 22.1634C26.5617 21.4683 26.4913 20.7608 26.4115 20.159C26.348 19.7064 26.2731 19.1698 26.2914 18.637C26.2479 18.4664 26.2042 18.2993 26.1605 18.1334C25.9112 17.1824 25.6959 16.3597 25.8695 15.6623C25.9716 15.132 26.3028 14.4232 26.9791 14.5207C26.7786 14.3879 26.4805 14.2397 26.1784 14.3016C25.9112 14.349 25.7387 14.5102 25.6384 14.6358C24.8897 15.6473 25.2914 17.3647 25.5489 18.4144C25.7191 19.1014 25.8937 19.8125 25.9141 20.5262C26.0007 21.8209 25.7043 23.1136 25.3886 24.2216Z" fill="white"/>
<path fill-rule="evenodd" clip-rule="evenodd" d="M25.8442 24.4143C25.9187 24.4518 25.9896 24.4933 26.0616 24.5359C26.4851 23.6964 26.7278 22.9305 26.8054 22.2072C26.9022 21.5014 26.7947 20.7871 26.6916 20.0889C26.6169 19.5889 26.543 19.1077 26.543 18.634C26.543 17.903 26.7862 16.793 27.8183 17.1535C27.6821 17.0719 27.5234 17.0268 27.3214 17.0391C26.5329 17.0614 26.3858 18.2032 26.3858 18.7985C26.3858 19.2624 26.452 19.7218 26.5099 20.1451C26.565 20.5595 26.6171 21.0253 26.6171 21.5042C26.6171 21.7264 26.6064 21.9509 26.5784 22.1726C26.502 22.8609 26.2598 23.595 25.8442 24.4143Z" fill="#FFCB00"/>
<path fill-rule="evenodd" clip-rule="evenodd" d="M26.1438 24.59C26.3028 24.6941 26.452 24.8124 26.5896 24.9392C26.8575 24.5206 27.0485 24.1236 27.1697 23.7284C27.3688 23.1194 27.4146 22.4996 27.4639 21.8415C27.4777 21.637 27.4943 21.4292 27.5143 21.2189C27.4351 20.0358 27.1424 18.996 27.1951 18.1998C27.2382 17.5312 27.4407 17.3922 28.0945 17.4099C27.0477 16.6413 26.6415 17.8503 26.6415 18.6332C26.6415 19.1 26.7153 19.5758 26.7886 20.0748C26.8917 20.7827 26.9996 21.5042 26.9042 22.2187C26.8241 22.9588 26.5772 23.7342 26.1438 24.59Z" fill="white"/>
<path fill-rule="evenodd" clip-rule="evenodd" d="M26.6606 25.0086C26.7192 25.0664 26.7742 25.1241 26.8293 25.1864C27.1306 24.7225 27.342 24.2757 27.4718 23.8289C27.6831 23.1398 27.7096 22.433 27.7324 21.7457C27.7468 21.3128 27.6993 20.6906 28.0108 20.3321C28.1559 20.1435 28.4482 20.0865 28.6667 20.1586C28.5568 20.0947 28.4231 20.0711 28.2815 20.106H28.2808C27.9857 20.165 27.7278 20.4984 27.6481 20.9135C27.6078 21.2249 27.5849 21.5438 27.5622 21.8505C27.5168 22.4834 27.4652 23.1398 27.2648 23.7577C27.1384 24.1667 26.9387 24.577 26.6606 25.0086Z" fill="#FFCB00"/>
<path fill-rule="evenodd" clip-rule="evenodd" d="M26.897 25.2662C27.034 25.4328 27.1541 25.6095 27.257 25.7988C27.7405 25.0886 27.8608 24.3005 28.2201 23.5216V23.5204L28.2213 23.5192C28.3109 23.0064 28.3294 22.4966 28.3294 22.0368C28.3294 21.8918 28.327 21.7531 28.3246 21.62C28.3246 21.1625 28.2533 20.5157 28.8339 20.3632C28.6392 20.1796 28.26 20.1719 28.089 20.3961C27.7956 20.7303 27.8457 21.3496 27.8317 21.7494C27.8074 22.4421 27.7825 23.1582 27.5662 23.8574C27.4336 24.3215 27.2128 24.7849 26.8974 25.2663L26.897 25.2662Z" fill="white"/>
<path fill-rule="evenodd" clip-rule="evenodd" d="M27.3152 25.9112C27.3491 25.976 27.3791 26.0425 27.4077 26.1101C27.455 26.0416 27.4996 25.9724 27.5399 25.9012C27.8884 25.3159 28.0887 24.6466 28.2561 23.9894C28.3332 23.6408 28.5915 22.8735 29.1429 23.125C28.593 22.7126 28.2215 23.7213 28.1391 24.0143C27.9109 24.6666 27.706 25.3334 27.3152 25.9112Z" fill="#FFCB00"/>
<path fill-rule="evenodd" clip-rule="evenodd" d="M27.4517 26.221C27.5277 26.423 27.585 26.6329 27.621 26.852C28.0632 26.3437 28.4143 25.6719 28.5773 25.0263C28.6153 24.8823 28.6381 24.6836 28.662 24.4786C28.7109 24.0648 28.6989 23.2957 29.287 23.3945C28.8108 22.7015 28.441 23.642 28.3536 24.0135C28.1808 24.6777 27.9795 25.3549 27.6241 25.9496C27.5745 26.0416 27.5174 26.1321 27.4517 26.221Z" fill="white"/>
<path fill-rule="evenodd" clip-rule="evenodd" d="M22.0141 29.8924C21.3451 29.2755 20.9255 28.3928 20.9255 27.411C20.9255 26.2369 21.5267 25.2027 22.4379 24.5996C22.5632 24.0483 22.7079 23.495 22.8166 22.9405C21.6073 22.8506 20.9239 22.1779 20.4466 21.0944C19.9031 19.9969 19.614 18.974 18.7239 18.0366C18.4816 17.7831 17.8081 17.267 17.8001 17.2619L17.7839 17.2479L17.7827 17.2262C17.7827 17.2238 17.7701 17.0279 17.7334 16.7977C17.6965 16.5758 17.6794 16.4547 17.4635 16.3514C17.2379 16.2441 17.0801 16.2724 16.8988 16.3526C16.7139 16.4317 16.5 16.7298 16.4954 16.7301L16.4791 16.755L16.4501 16.7502C16.4489 16.7502 16.202 16.7133 15.9227 16.7014C15.3226 16.6759 14.6308 16.7529 14.2689 17.2698C14.0798 17.5429 13.9124 17.618 13.5881 17.6885L13.3413 17.7511C13.1342 17.8217 12.9671 18.0541 12.7729 18.1767C12.646 18.2532 12.3711 18.3877 12.3711 18.569C12.3711 18.6943 12.4198 18.9785 12.5278 19.0359C12.578 19.0632 12.6353 19.0825 12.6579 19.0418C12.7146 18.9396 12.809 18.8301 12.8047 18.7411C12.8712 18.8992 12.7729 19.0306 12.7108 19.1249C12.6677 19.1902 12.566 19.1387 12.524 19.1257C12.5312 19.2043 12.5514 19.3215 12.6134 19.4112C12.681 19.5101 12.7384 19.5931 12.8353 19.6366V19.6374C12.8481 19.8037 12.9623 19.882 13.0807 19.9687C13.0651 19.8945 13.0205 19.7633 13.0424 19.694C13.0459 19.6833 13.0471 19.6713 13.0519 19.6603C13.0662 19.6579 13.0813 19.6556 13.0963 19.6532C13.1224 19.7203 13.1843 19.7564 13.2468 19.7402C13.3187 19.7203 13.3611 19.6652 13.3611 19.5847V19.5764C13.3611 19.5669 13.361 19.5552 13.3575 19.5438L13.3826 19.5301C13.4038 19.603 13.455 19.6464 13.5185 19.6464C13.5985 19.6464 13.6605 19.5819 13.6605 19.4964V19.4893C13.6605 19.4725 13.6605 19.4543 13.6581 19.4359C13.6641 19.4354 13.6688 19.4347 13.6769 19.4335C14.1881 19.4057 14.4512 19.9814 13.9418 20.2399C13.8208 20.3017 13.6989 20.2692 13.5872 20.2719C13.5114 20.2731 13.4426 20.3093 13.3651 20.3284L13.1036 20.1292L13.1835 20.4047C13.1604 20.4179 13.1261 20.4345 13.1261 20.466C13.1256 20.4859 13.139 20.5391 13.267 20.638C13.3324 20.6885 13.3727 20.7386 13.4064 20.784C13.4526 20.8472 13.4918 20.8973 13.5922 20.9479C13.8098 21.0573 13.9954 20.9977 14.2282 20.9242C14.3975 20.8721 14.5169 20.7951 14.6518 20.6782C14.7704 20.577 14.8846 20.481 15.0083 20.4834C15.3894 20.4941 15.7783 20.7536 16.0797 21.1986C16.2728 21.4863 16.4255 21.7114 16.5745 22.5457C16.7928 23.7473 16.7582 24.1709 16.7129 24.7083C16.6783 25.1245 16.6383 25.5964 16.7082 26.548C16.8362 28.2957 17.3739 29.1883 19.0301 29.8694C18.6066 28.2093 19.334 27.2878 19.7796 26.8339C18.8954 27.8406 19.0922 29.6541 19.2836 30.1687C19.2859 30.194 19.345 30.8062 19.2707 31.0926C19.2249 31.2678 18.9332 32.2294 18.6529 33.1619L18.1937 34.6893C17.9942 35.3598 17.7952 35.9307 17.3862 36.1083C17.1432 36.2125 16.8495 36.1737 16.4874 35.9925C16.0983 35.7964 15.9415 35.8075 15.9405 35.8075C15.2675 35.6378 14.3575 35.9443 14.2821 36.7073C14.3811 36.6546 14.5512 36.7688 14.5434 36.8056C14.7556 36.0676 15.4094 36.2453 15.4902 36.2812C15.2923 36.3219 14.779 36.1837 14.6444 36.877C14.8194 36.926 14.8723 36.9798 14.9112 37.1394C15.0855 36.6749 15.6341 36.754 15.9212 36.8425C15.6175 36.8266 15.1241 36.8318 14.9636 37.2695C15.0889 37.3025 15.2379 37.3608 15.2746 37.5242C15.7277 37.56 16.0307 37.7854 16.5224 37.6622C16.6679 37.6225 16.8204 37.5839 16.9774 37.5621C17.5979 37.4945 18.2267 37.4662 18.6849 36.9652C19.176 36.4294 19.1279 36.2478 19.1268 36.2472L19.2172 36.2054C19.2207 36.2102 19.3088 36.3554 19.654 36.2889C19.8425 36.255 19.9317 36.1975 19.9751 36.1541C19.8833 36.1541 19.7487 36.1279 19.6285 36.0067C19.5615 35.9407 19.5354 35.8418 19.5354 35.7303C19.5354 35.4175 19.7351 35.0069 19.7658 34.9483C19.8276 34.8228 20.1115 34.3262 20.4392 33.749C20.8962 32.9495 21.4114 32.0434 21.4907 31.8669L21.5233 31.7895C21.6488 31.5097 21.8056 31.1618 21.8269 30.5641C21.8395 30.2427 21.9249 30.0282 22.0127 29.8918L22.0141 29.8924ZM15.0431 17.7612C15.0431 17.737 15.0502 17.712 15.0589 17.6894C15.0578 17.7024 15.0505 17.7106 15.0505 17.7208C15.0505 17.8225 15.1399 17.9025 15.2513 17.9025C15.3213 17.9025 15.3794 17.8682 15.4145 17.819C15.3906 17.8968 15.3201 17.9543 15.2358 17.9543C15.1292 17.9543 15.0433 17.8663 15.0433 17.7612H15.0431ZM15.5509 17.7624C15.5772 17.7947 15.5936 17.8286 15.5936 17.8648C15.5936 17.9941 15.4345 18.0992 15.2393 18.0992C15.043 18.0992 14.8856 17.9941 14.8856 17.8648C14.8856 17.8304 14.8982 17.7997 14.92 17.7687C14.9236 17.9394 15.0627 18.0779 15.2356 18.0779C15.4093 18.0779 15.5509 17.9368 15.5509 17.7624ZM14.7612 17.8428C14.7773 17.6531 14.9822 17.5078 15.2393 17.5078C15.4142 17.5078 15.5728 17.5787 15.6574 17.6941C15.6681 17.7001 16.0125 17.8593 16.0125 17.8593L15.9882 17.9255C15.9197 17.9086 15.8027 17.8912 15.7687 17.9106L15.6923 17.9778L15.6994 17.9659C15.641 18.1177 15.4519 18.2248 15.2393 18.2248C15.1666 18.2248 15.0982 18.2093 15.0353 18.1868C15.0246 18.1856 14.8103 18.15 14.8103 18.15L14.5937 18.1441L14.5245 17.9912L14.5652 17.9817C14.5664 17.9817 14.65 17.9593 14.7039 17.9117C14.7246 17.8966 14.743 17.8704 14.7612 17.8426V17.8428ZM16.8617 16.5877C17.0393 16.3456 17.4119 16.4214 17.5017 16.681C17.5667 16.8696 17.6084 17.2457 17.4828 17.3492C17.3311 17.3303 17.0902 17.3095 16.9774 17.3777C17.1426 17.1199 17.4609 17.4454 17.3845 16.8575C17.3535 16.614 17.0936 16.4333 16.8617 16.5877ZM17.8354 18.7799C18.0517 19.3072 17.7776 20.1651 17.2573 20.4158C17.0682 20.5047 16.3214 20.5886 15.8385 20.3074C16.1546 20.3798 16.9319 20.4654 17.2229 20.2952C17.7431 20.0479 17.9112 19.3116 17.8354 18.7799Z" fill="white"/>
<path fill-rule="evenodd" clip-rule="evenodd" d="M10.3065 28.8346C10.3073 29.0319 10.3788 29.6009 10.6908 29.8126C10.6739 29.706 10.8691 29.5426 10.9563 29.5753C10.984 29.5352 10.9376 29.5125 10.9405 29.4767C10.7455 29.1351 10.7508 28.8899 10.8685 28.5546C10.8161 28.7863 10.8409 29.1305 11.0386 29.4818C11.0739 29.3771 11.1697 29.2053 11.3422 29.2781C11.4842 29.0281 11.3494 28.4883 11.3818 28.3344C11.498 27.7958 12.1336 27.7089 12.5907 27.7603L12.6415 27.8579C12.6415 27.8579 12.5317 27.943 12.5317 28.2016C12.5317 28.4557 12.6305 28.5064 12.6305 28.5064C12.6305 28.5064 12.6657 28.1635 12.9607 28.0889C13.2531 28.0153 13.5835 28.2016 13.7302 28.261C13.8772 28.3222 15.7964 29.4109 16.7263 29.8391C17.1213 30.0208 17.9273 30.2699 18.6257 29.8283C17.4154 29.3996 16.7464 28.4725 16.5707 27.0869C16.3229 27.0941 15.929 27.0905 15.5767 27.0129C15.0143 26.8907 13.7918 26.5475 12.8135 26.5359C11.8341 26.5238 11.3089 26.6587 10.9058 26.9033C10.5013 27.1489 9.77869 27.8988 9.66896 28.7188C9.63112 28.9969 9.83436 30.1145 10.3705 30.0652C10.4207 29.9328 10.4674 29.8535 10.5744 29.847C10.3072 29.5105 10.1979 29.1254 10.3065 28.8345V28.8346Z" fill="white"/>
<path fill-rule="evenodd" clip-rule="evenodd" d="M23.6605 30.722C23.0678 30.6092 22.5285 30.3401 22.0899 29.9609C22.0132 30.0845 21.9383 30.2781 21.9276 30.5677C21.9252 30.655 21.918 30.7356 21.9102 30.8145C22.4404 30.8319 23.0417 30.8074 23.6605 30.722Z" fill="white"/>
<path fill-rule="evenodd" clip-rule="evenodd" d="M22.2545 27.5622C22.2884 28.0275 22.4775 28.4456 22.7697 28.7702C22.6593 28.6108 22.6446 28.3942 22.8346 28.2028C22.9467 28.0904 23.778 27.5283 23.98 27.7285C24.1718 27.919 23.6342 28.7433 23.5043 28.873C23.3243 29.0551 23.0739 29.0279 22.8985 28.9008C23.234 29.2132 23.6748 29.4147 24.1599 29.4514C23.9756 29.4031 23.8213 29.2545 23.8213 29.0056C23.8213 28.8526 24.0139 27.8585 24.2969 27.8585C24.5811 27.8585 24.7708 28.8543 24.7708 29.0056C24.7708 29.255 24.6162 29.4035 24.4321 29.4516C24.8878 29.4177 25.3033 29.2406 25.6298 28.9625C25.4676 29.0482 25.2606 29.0447 25.0882 28.873C24.981 28.7649 24.4116 27.9267 24.6126 27.7285C24.8155 27.5283 25.6524 28.0952 25.7599 28.2028C25.9338 28.3763 25.9355 28.585 25.847 28.7478C26.1256 28.428 26.3055 28.0204 26.3394 27.5672C26.2851 27.7431 26.1356 27.8873 25.8912 27.8873C25.7364 27.8873 24.7443 27.6949 24.7443 27.4104C24.7443 27.1267 25.741 26.9365 25.8912 26.9365C26.136 26.9365 26.2853 27.0804 26.3394 27.2563C26.3058 26.8092 26.127 26.4013 25.8504 26.0795C25.8803 26.1405 25.8974 26.2096 25.8974 26.2845C25.8974 26.4107 25.8484 26.53 25.7599 26.6203C25.6251 26.7556 24.8117 27.2945 24.6126 27.0943C24.4132 26.8945 24.981 26.0563 25.0882 25.9483C25.2502 25.7881 25.4657 25.7772 25.6335 25.862C25.3101 25.5828 24.899 25.4023 24.4489 25.3691C24.6256 25.4227 24.7708 25.5728 24.7708 25.8189C24.7708 25.9675 24.5811 26.9636 24.2969 26.9636C24.0147 26.9636 23.8213 26.0095 23.8213 25.8189C23.8213 25.5728 23.9666 25.4228 24.1436 25.3693C23.685 25.4034 23.2678 25.5898 22.9421 25.8777C23.1027 25.7716 23.3181 25.7612 23.5043 25.9483C23.6086 26.053 24.1821 26.8931 23.98 27.0943C23.7794 27.2965 22.9413 26.7262 22.8346 26.6203C22.6521 26.436 22.6756 26.1919 22.798 26.0182C22.4893 26.3499 22.2889 26.7836 22.2544 27.2622C22.307 27.0836 22.4571 26.9365 22.7045 26.9365C22.854 26.9365 23.8484 27.1266 23.8484 27.4104C23.8484 27.6949 22.8595 27.8873 22.7045 27.8873C22.4573 27.8873 22.3073 27.7403 22.2545 27.5622ZM23.9542 27.4104C23.9542 27.2226 24.1074 27.0678 24.2969 27.0678C24.4868 27.0678 24.6393 27.2226 24.6393 27.4104C24.6393 27.6006 24.4868 27.7551 24.2969 27.7551C24.1074 27.7551 23.9542 27.6006 23.9542 27.4104Z" fill="#FFCB00"/>
<path fill-rule="evenodd" clip-rule="evenodd" d="M25.1553 28.8069C25.5101 29.1601 26.0467 28.624 25.6929 28.2708C25.5855 28.1632 24.8077 27.6701 24.6791 27.7969C24.5532 27.9211 25.0505 28.7015 25.1553 28.8069ZM24.839 27.4114C24.839 27.5915 25.7398 27.7934 25.8912 27.7934C26.3943 27.7934 26.3952 27.0322 25.8912 27.0322C25.7411 27.0322 24.839 27.2332 24.839 27.4114ZM25.1553 26.0162C25.0496 26.1224 24.5544 26.9028 24.6799 27.0284C24.8117 27.1611 25.5823 26.6652 25.6924 26.5548C25.7635 26.4822 25.8026 26.3871 25.8026 26.2854C25.8026 25.9546 25.3968 25.7772 25.1553 26.0162ZM23.916 25.8199C23.916 25.9761 24.1098 26.8698 24.2969 26.8698C24.4752 26.8698 24.6761 25.9699 24.6761 25.8199C24.6761 25.315 23.916 25.3155 23.916 25.8199ZM22.9013 26.554C23.0078 26.6598 23.7868 27.1556 23.9131 27.0283C24.0398 26.9022 23.5431 26.1224 23.4372 26.0161C23.0726 25.6502 22.5805 26.2299 22.9013 26.554ZM23.7537 27.4114C23.7537 27.2332 22.8545 27.0322 22.7045 27.0322C22.2004 27.0322 22.2004 27.7934 22.7045 27.7934C22.8559 27.7934 23.7537 27.5916 23.7537 27.4114ZM23.9134 27.7968C23.7845 27.6691 23.0094 28.1626 22.9017 28.2707C22.532 28.6434 23.1296 29.1184 23.4373 28.8069C23.5434 28.701 24.037 27.9194 23.9134 27.7968ZM24.6761 29.0065C24.6761 28.856 24.4756 27.9542 24.2969 27.9542C24.1186 27.9542 23.916 28.856 23.916 29.0065C23.916 29.4989 24.6761 29.4999 24.6761 29.0065ZM24.049 27.4114C24.049 27.5487 24.1591 27.6613 24.2969 27.6613C24.4351 27.6613 24.5445 27.5489 24.5445 27.4114C24.5445 27.275 24.4335 27.1635 24.2969 27.1635C24.1605 27.1635 24.049 27.2751 24.049 27.4114Z" fill="white"/>
</svg>
